<?xml version="1.0" standalone="no"?>
<!DOCTYPE svg PUBLIC "-//W3C//DTD SVG 20010904//EN"
 "http://www.w3.org/TR/2001/REC-SVG-20010904/DTD/svg10.dtd">
<svg version="1.0" xmlns="http://www.w3.org/2000/svg"
 width="300.000000pt" height="300.000000pt" viewBox="0 0 300.000000 300.000000"
 preserveAspectRatio="xMidYMid meet">
<metadata>
Created by potrace 1.10, written by Peter Selinger 2001-2011
</metadata>
<g transform="translate(0.000000,300.000000) scale(0.050000,-0.050000)"
fill="#7b00a8" stroke="none">
<path d="M2770 5858 c-172 -100 -315 -312 -490 -729 -256 -609 -689 -1912
-555 -1669 15 28 41 48 58 45 20 -4 39 23 56 80 35 116 64 177 106 219 19 20
35 59 35 87 0 29 9 46 20 39 11 -7 20 9 20 37 0 28 11 62 25 77 14 14 25 35
25 46 1 23 45 162 70 220 10 22 40 99 68 170 27 72 61 157 74 190 14 33 24 65
23 71 -1 6 24 64 56 130 31 65 49 122 39 125 -9 4 -2 24 16 46 19 22 35 46 36
54 4 38 115 264 130 264 9 0 12 13 6 28 -6 17 5 33 28 41 29 9 36 25 28 66
-10 50 -7 52 24 27 19 -16 33 -20 31 -10 -9 43 3 69 24 56 14 -8 18 -5 10 7
-7 12 2 37 20 55 26 27 36 28 50 6 12 -19 16 -17 17 10 0 20 8 31 18 25 10 -6
22 -4 27 4 5 8 6 4 3 -9 -4 -14 3 -30 14 -37 12 -7 16 -26 10 -41 -6 -15 -1
-28 11 -28 16 0 16 -7 0 -26 -12 -15 -26 -60 -31 -102 -5 -41 -20 -88 -33
-103 -19 -23 -18 -29 1 -29 16 0 10 -24 -17 -70 -27 -46 -33 -70 -17 -70 18
-1 18 -5 -1 -17 -14 -9 -30 -38 -35 -64 -5 -27 -19 -52 -31 -56 -14 -5 -14
-15 1 -33 15 -19 13 -29 -11 -38 -17 -6 -26 -21 -19 -32 7 -11 2 -20 -10 -20
-12 0 -17 -8 -11 -18 6 -10 -4 -52 -21 -94 -18 -42 -35 -90 -39 -107 -3 -17
-29 -96 -56 -176 -28 -80 -46 -145 -41 -145 5 0 -3 -25 -19 -55 -15 -30 -24
-66 -19 -79 5 -13 -7 -48 -27 -77 -19 -30 -33 -80 -31 -112 3 -31 -5 -57 -17
-57 -14 0 -17 -27 -10 -75 11 -69 10 -72 -18 -35 -23 31 -30 33 -30 9 -1 -17
8 -40 19 -51 13 -13 14 -41 2 -79 -43 -137 -46 -175 -11 -162 27 11 30 3 20
-52 -27 -139 32 14 259 675 466 1352 490 1455 373 1607 -42 55 -188 78 -253
41z"/>
<path d="M4432 5511 c-472 -170 -1756 -3004 -1448 -3198 49 -31 356 204 356
273 0 12 89 293 198 623 197 597 279 896 363 1325 41 209 48 225 99 243 32 11
82 61 121 121 36 56 74 102 85 102 10 0 13 14 7 30 -7 17 -5 30 3 30 19 0 164
192 164 217 0 22 73 36 136 27 44 -7 48 -129 6 -164 -7 -5 -15 -27 -19 -48 -3
-21 -17 -50 -30 -64 -52 -59 -64 -79 -63 -108 1 -29 -12 -50 -66 -111 -15 -16
-21 -29 -13 -29 8 0 3 -13 -10 -29 -14 -16 -18 -41 -10 -55 9 -14 8 -19 -2
-11 -16 15 -212 -349 -214 -400 -1 -14 -8 -25 -15 -25 -8 0 -26 -38 -41 -85
-15 -47 -39 -107 -53 -135 -14 -27 -26 -61 -26 -75 0 -14 -10 -25 -21 -25 -12
0 -17 -8 -11 -17 6 -9 -7 -50 -29 -90 -21 -40 -30 -73 -19 -73 11 0 20 -13 20
-30 0 -16 -8 -30 -17 -30 -26 0 -44 -111 -29 -183 11 -57 42 -5 329 565 174
345 371 737 438 869 67 133 127 278 133 322 25 187 -135 305 -322 238z m-852
-1772 c0 -19 -13 -45 -30 -59 -16 -14 -30 -38 -30 -55 0 -18 -12 -25 -30 -18
-16 7 -30 3 -30 -8 0 -10 18 -19 41 -19 41 0 41 0 -1 -45 -23 -24 -32 -48 -21
-51 12 -4 21 -15 21 -25 0 -10 -12 -13 -26 -8 -19 8 -26 -13 -26 -75 1 -61 -6
-84 -25 -81 -14 4 -20 -4 -13 -15 8 -12 7 -37 -1 -56 -8 -19 -18 -52 -23 -73
-4 -22 -21 -61 -39 -88 -17 -26 -21 -42 -9 -34 12 7 22 4 22 -8 0 -11 -9 -21
-20 -21 -11 0 -18 -7 -16 -15 8 -31 -28 -145 -45 -145 -10 0 -13 -13 -6 -30 7
-20 -1 -30 -26 -30 -29 -1 -31 -4 -9 -18 35 -22 11 -62 -38 -62 -46 0 -69 -32
-37 -52 13 -8 18 -6 11 6 -7 10 1 19 17 19 21 0 23 -6 6 -26 -12 -15 -31 -21
-43 -13 -13 8 -16 0 -8 -22 8 -20 6 -29 -6 -22 -29 18 -25 78 14 207 19 62 32
120 30 128 -2 8 12 16 31 17 21 1 25 5 10 11 -14 6 -25 34 -25 64 1 36 6 45
18 26 21 -33 47 21 30 65 -6 15 -1 34 11 41 12 8 17 22 10 32 -6 10 4 13 22 6
29 -11 30 -8 7 29 -23 37 -21 49 23 96 27 30 38 48 24 40 -16 -9 -21 -4 -13
17 7 17 21 31 31 31 11 0 14 9 7 20 -7 11 -4 20 6 20 10 0 16 23 13 50 -3 28
1 50 8 50 16 0 74 124 68 144 -3 8 9 9 25 3 22 -8 30 3 30 38 0 30 12 48 30
48 17 0 30 -15 30 -34z"/>
<path d="M1682 5486 c-148 -74 -330 -535 -521 -1316 -82 -336 -198 -1100 -147
-973 9 23 14 23 28 0 14 -21 17 -19 18 8 0 19 8 35 17 35 30 0 63 100 65 196
1 94 1 94 27 36 l26 -58 16 98 c9 54 17 113 18 131 1 18 8 40 16 48 8 9 5 27
-7 42 -16 19 -14 34 11 59 27 27 28 38 7 64 -20 24 -20 28 -1 17 16 -10 26 -3
27 21 3 37 9 68 16 86 3 6 9 46 14 90 5 44 19 104 30 134 12 29 16 63 9 75 -8
12 3 22 23 23 20 0 25 6 12 11 -27 11 7 107 38 107 10 0 7 19 -5 41 -25 47 9
108 48 86 14 -8 13 -2 -2 14 -29 32 -34 67 -6 50 10 -7 18 4 17 24 -1 19 12
81 29 138 18 57 26 110 18 118 -7 9 -2 9 12 1 25 -15 33 12 29 104 -1 25 6 40
15 34 23 -14 47 25 53 84 11 98 168 234 168 145 0 -12 -11 -16 -25 -9 -14 7
-9 0 10 -16 35 -28 49 -153 21 -181 -8 -8 -15 -55 -17 -104 -1 -50 -12 -100
-25 -113 -16 -16 -16 -33 -1 -62 16 -29 15 -43 -4 -55 -14 -8 -20 -29 -13 -46
6 -17 2 -34 -10 -38 -12 -4 -20 -49 -19 -102 1 -52 -6 -90 -14 -85 -19 12 -70
-300 -54 -327 7 -10 4 -23 -6 -29 -10 -6 -18 -36 -18 -66 0 -30 -9 -57 -20
-61 -12 -4 -13 -40 -2 -101 10 -52 13 -152 6 -224 -8 -90 -5 -121 8 -101 11
16 16 36 11 44 -5 8 2 21 14 29 17 10 20 -6 10 -59 -8 -40 -6 -73 4 -73 9 0
36 97 60 215 23 118 93 458 155 755 148 709 152 919 23 1026 -50 42 -141 46
-212 10z"/>
<path d="M3470 5317 c-141 -78 -320 -305 -484 -618 -220 -420 -620 -1331 -531
-1209 8 11 33 20 55 20 22 0 38 11 35 25 -3 14 4 25 15 25 11 0 20 13 20 29 0
16 16 41 35 55 41 31 141 169 108 148 -13 -8 -23 -6 -23 5 0 10 14 24 30 30
17 7 30 26 30 44 0 20 9 26 25 16 19 -11 19 -8 -1 17 -21 26 -20 33 5 43 17 6
31 26 31 42 0 17 9 31 19 31 11 0 25 32 32 70 8 39 21 70 31 70 10 0 18 21 18
48 0 31 14 51 42 58 23 6 37 20 30 30 -6 11 15 72 47 136 33 64 56 120 51 124
-4 5 10 27 31 49 20 23 33 49 27 58 -6 9 -1 17 11 17 11 0 21 15 21 33 0 18
14 43 31 55 17 13 34 41 37 63 3 21 18 39 34 40 15 0 26 12 23 25 -6 27 77
117 100 109 8 -3 14 2 13 10 -10 61 5 89 42 79 23 -6 41 0 41 13 1 13 10 5 19
-17 16 -38 17 -38 19 5 1 59 41 59 41 0 0 -25 -23 -126 -51 -225 -28 -99 -56
-198 -62 -220 -6 -22 -10 -61 -9 -86 1 -25 -5 -42 -14 -36 -9 5 -29 1 -45 -9
-21 -13 -22 -18 -3 -19 20 0 20 -9 2 -43 -13 -24 -23 -90 -23 -145 1 -77 -3
-90 -14 -52 -13 43 -17 45 -30 15 -9 -20 -6 -47 6 -61 14 -17 15 -52 2 -105
-25 -110 -23 -123 10 -78 29 38 30 37 31 -11 2 -55 221 506 332 850 119 366 3
581 -242 447z"/>
<path d="M5107 5042 c-181 -84 -442 -398 -851 -1022 -295 -452 -398 -622 -354
-586 18 14 40 17 58 6 18 -11 37 -6 55 16 19 23 23 24 13 4 -8 -18 -7 -23 4
-13 18 16 21 25 26 82 1 19 14 25 35 17 23 -9 29 -5 18 12 -10 16 0 29 26 35
26 7 36 22 28 42 -6 17 -4 27 7 21 16 -9 88 51 88 74 0 6 0 18 0 29 0 10 18
24 40 31 22 7 35 21 29 32 -6 10 3 32 20 50 17 17 31 44 31 61 0 16 9 24 20
17 11 -7 20 2 20 19 0 17 13 31 29 31 18 0 25 12 18 30 -6 17 -1 30 12 30 13
0 17 11 9 23 -10 16 -4 20 20 11 19 -8 29 -5 23 5 -7 10 -2 24 9 31 11 7 16
20 10 29 -5 9 4 22 21 29 18 6 28 19 24 27 -8 16 78 106 90 94 3 -4 8 11 10
32 1 22 30 69 64 104 33 36 97 113 142 171 47 61 90 99 103 92 14 -9 17 -5 7
10 -17 28 45 107 72 90 9 -6 17 -1 17 11 0 14 14 13 41 -4 33 -21 44 -20 59 5
15 23 19 14 20 -35 0 -36 -9 -65 -20 -65 -11 0 -20 -16 -20 -35 0 -19 -35 -80
-77 -136 -95 -126 -360 -649 -347 -687 5 -15 1 -23 -8 -17 -10 6 -30 -2 -44
-17 -14 -15 -20 -28 -14 -28 7 0 -5 -34 -27 -75 -22 -41 -61 -122 -86 -179
-38 -83 -57 -105 -97 -108 -37 -2 -40 -5 -14 -12 23 -6 33 -21 25 -39 -6 -17
-11 -35 -11 -40 0 -5 -10 -3 -23 5 -14 9 -18 5 -9 -9 8 -13 -4 -49 -26 -80
-23 -32 -34 -65 -26 -75 8 -9 0 -6 -17 7 -25 19 -38 19 -58 0 -18 -17 -29 -18
-34 -4 -6 16 -56 14 -170 -4 -90 -14 -171 -21 -180 -15 -10 6 -22 -3 -29 -19
-6 -17 -23 -26 -38 -20 -15 5 -37 -9 -49 -32 -13 -23 -31 -37 -42 -31 -10 7
-13 -3 -5 -22 8 -23 5 -30 -9 -21 -12 8 -28 4 -35 -7 -7 -11 -21 -15 -31 -9
-11 6 -19 0 -20 -15 0 -14 -28 -53 -62 -86 -57 -55 -184 -217 -228 -290 -9
-16 18 -1 62 35 485 398 534 429 709 440 160 10 287 -71 210 -135 -16 -14 -30
-43 -30 -65 0 -25 -10 -36 -28 -29 -19 8 -25 0 -18 -25 5 -20 0 -42 -11 -49
-12 -7 -16 -27 -9 -45 6 -17 0 -39 -15 -48 -32 -20 -32 -169 0 -208 16 -19
-17 -70 -135 -203 -86 -98 -317 -371 -514 -608 -934 -1120 -967 -1156 -1042
-1107 -40 26 -57 30 -63 12 -5 -14 -25 -25 -45 -25 -21 0 -49 -11 -64 -25 -14
-14 -62 -43 -106 -65 -44 -22 -84 -46 -90 -53 -21 -27 -163 -75 -190 -64 -17
6 -30 1 -30 -11 0 -12 -7 -21 -15 -19 -8 2 -32 -4 -52 -13 -24 -10 -43 -6 -55
12 -13 22 -17 22 -18 2 0 -15 -10 -20 -22 -13 -12 8 -30 2 -39 -12 -13 -21
-27 -22 -69 -3 -28 13 -68 24 -88 24 -39 0 -366 159 -332 161 11 1 -2 10 -30
21 -41 17 -44 24 -20 40 23 16 20 18 -13 9 -40 -12 -80 31 -70 75 2 10 -5 12
-15 5 -24 -15 -106 98 -86 119 8 9 5 11 -6 5 -11 -6 -32 2 -46 17 -14 15 -19
28 -12 28 8 0 1 16 -16 35 -57 66 -186 342 -178 382 2 15 -5 21 -16 14 -13 -8
-17 -1 -10 18 7 17 2 31 -11 31 -13 0 -17 10 -10 22 8 12 2 30 -13 40 -23 14
-23 17 2 18 23 0 24 4 4 17 -14 9 -27 36 -29 60 -2 24 -8 43 -14 43 -11 0 -16
36 -26 160 -3 33 -12 60 -21 60 -9 0 -12 7 -8 15 5 8 0 38 -11 65 -11 28 -19
75 -16 105 2 30 -3 55 -12 55 -10 0 -20 74 -23 165 -4 91 -15 168 -24 171 -9
4 -8 34 4 67 16 46 15 65 -3 76 -38 24 -41 925 -3 911 21 -8 22 -5 5 16 -12
15 -18 33 -11 39 6 6 2 44 -9 83 -11 40 -13 68 -4 62 9 -5 22 4 29 21 6 18 3
26 -8 19 -11 -7 -20 -4 -20 7 0 11 11 23 25 28 20 7 19 15 -2 41 -14 18 -20
43 -12 55 8 13 13 67 12 121 -1 53 5 118 15 143 9 25 9 65 0 90 -9 25 -10 45
-2 45 17 0 19 14 30 190 5 74 17 118 30 115 13 -2 17 9 11 25 -6 17 0 30 13
30 13 0 20 12 14 28 -6 15 -1 37 12 50 26 26 81 30 65 4 -6 -9 4 -16 21 -15
26 3 33 -23 38 -142 3 -80 -2 -145 -11 -145 -9 0 -10 -25 -2 -55 8 -30 13 -66
12 -80 -2 -14 -5 -44 -6 -66 -2 -23 -12 -36 -23 -29 -11 7 -20 4 -20 -7 0 -11
9 -23 20 -26 10 -4 23 -110 28 -237 11 -262 29 -399 57 -435 11 -14 13 -25 4
-25 -8 0 0 -16 18 -37 18 -20 28 -41 22 -47 -6 -6 3 -16 20 -23 56 -21 61
1420 6 1520 -79 145 -278 127 -386 -35 -216 -322 -254 -2048 -68 -2980 274
-1363 1185 -1938 2009 -1267 l108 88 86 -32 c587 -215 1311 187 2166 1202 110
131 295 347 410 479 399 459 480 577 480 700 0 146 -173 289 -317 262 -160
-30 -248 -95 -670 -496 -253 -240 -309 -284 -361 -284 -79 0 -95 100 -33 210
101 181 125 246 114 315 -12 75 534 1206 746 1543 231 369 265 493 166 602
-72 80 -167 94 -278 42z m395 -2140 c35 -2 49 -113 17 -133 -11 -6 -19 -29
-19 -50 0 -22 -9 -39 -20 -39 -11 0 -20 -9 -20 -19 0 -11 -30 -49 -66 -86 -36
-36 -72 -82 -80 -102 -8 -19 -23 -30 -34 -23 -12 7 -19 1 -15 -13 3 -14 -8
-26 -25 -26 -16 -1 -30 -19 -30 -41 0 -22 -11 -38 -25 -35 -14 3 -25 -9 -25
-25 0 -17 -10 -30 -21 -30 -12 0 -17 -8 -11 -17 6 -9 -11 -29 -38 -43 -27 -14
-44 -34 -37 -44 6 -10 -8 -24 -31 -30 -23 -6 -42 -27 -42 -46 0 -40 -47 -86
-67 -66 -7 7 -13 -3 -13 -21 0 -19 -13 -39 -29 -45 -16 -7 -23 -25 -16 -43 8
-21 4 -27 -12 -17 -12 8 -23 6 -23 -5 0 -11 -25 -29 -55 -40 -30 -11 -44 -21
-31 -21 14 -1 20 -14 14 -30 -12 -32 -188 -219 -188 -200 0 7 -13 2 -30 -12
-16 -13 -25 -33 -19 -42 6 -10 -5 -18 -25 -18 -30 -1 -31 -4 -6 -20 24 -15 24
-19 2 -20 -28 0 -124 -91 -110 -105 4 -5 -16 -30 -45 -57 -30 -26 -46 -35 -37
-20 11 19 9 24 -7 14 -13 -8 -23 -31 -23 -52 0 -25 -20 -41 -61 -50 -50 -11
-59 -21 -50 -57 6 -24 5 -32 -1 -18 -19 41 -65 30 -54 -13 6 -26 -3 -42 -29
-51 -22 -6 -86 -57 -142 -112 -57 -55 -103 -90 -103 -78 0 12 -9 16 -20 9 -12
-7 -15 -21 -9 -31 6 -11 -3 -19 -20 -19 -17 0 -31 -10 -31 -22 0 -12 -14 -17
-31 -10 -18 7 -26 3 -19 -8 7 -11 -4 -26 -24 -32 -20 -7 -49 -17 -66 -23 -16
-6 -37 -10 -45 -8 -8 2 -15 -4 -15 -12 0 -24 -117 -70 -140 -55 -11 7 -26 -2
-32 -19 -7 -17 -34 -31 -60 -31 -27 0 -64 -8 -83 -18 -48 -24 -387 -106 -398
-96 -4 4 76 83 178 174 806 722 1402 1328 1469 1493 28 70 44 87 74 79 46 -12
146 37 195 95 20 24 36 36 36 28 1 -18 169 149 170 168 1 8 44 46 96 86 52 40
104 90 115 112 12 21 33 39 46 39 14 0 42 19 62 43 29 34 40 37 54 15 14 -23
17 -22 18 5 0 38 28 52 89 45 23 -3 55 -5 73 -6z m-1202 -741 c6 -1 -6 -11
-25 -23 -20 -11 -31 -29 -24 -39 6 -11 3 -19 -8 -19 -10 0 -24 -22 -31 -50 -7
-27 -27 -50 -44 -50 -17 0 -24 -10 -17 -22 10 -15 0 -18 -28 -9 -33 11 -40 7
-31 -18 8 -19 -2 -36 -25 -44 -20 -7 -51 -25 -67 -39 -22 -19 -39 -20 -60 -5
-25 17 -23 19 6 9 27 -9 41 3 57 48 12 33 30 60 40 60 11 0 14 9 7 20 -7 12
-6 20 4 18 43 -7 86 4 86 23 0 12 -9 16 -20 9 -11 -7 -20 -3 -20 9 0 12 23 31
50 41 28 11 49 26 48 35 -9 53 19 65 102 46z"/>
</g>
</svg>
