<?xml version="1.0" standalone="no"?>
<!DOCTYPE svg PUBLIC "-//W3C//DTD SVG 20010904//EN"
 "http://www.w3.org/TR/2001/REC-SVG-20010904/DTD/svg10.dtd">
<svg version="1.0" xmlns="http://www.w3.org/2000/svg"
 width="900.000000pt" height="900.000000pt" viewBox="0 0 900.000000 900.000000"
 preserveAspectRatio="xMidYMid meet">
<metadata>
Created by potrace 1.10, written by Peter Selinger 2001-2011
</metadata>
<g transform="translate(0.000000,900.000000) scale(0.100000,-0.100000)"
fill="#7b00a8" stroke="none">
<path d="M4244 8785 c-10 -8 -33 -15 -51 -15 -17 0 -35 -5 -38 -11 -4 -5 -17
-15 -28 -20 -51 -23 -87 -51 -161 -126 -61 -61 -96 -100 -96 -107 0 -3 -19
-32 -43 -63 -24 -32 -47 -66 -50 -75 -4 -10 -11 -18 -17 -18 -5 0 -10 -9 -10
-20 0 -10 -6 -23 -12 -27 -13 -8 -34 -38 -43 -60 -13 -33 -17 -40 -35 -68 -11
-16 -22 -37 -26 -45 -3 -8 -10 -22 -15 -30 -5 -8 -12 -22 -15 -30 -3 -8 -10
-22 -15 -30 -5 -8 -12 -22 -15 -30 -7 -20 -27 -62 -63 -139 -17 -34 -31 -73
-31 -86 0 -13 -7 -25 -15 -29 -8 -3 -15 -16 -15 -28 0 -13 -7 -32 -15 -42 -8
-11 -15 -27 -15 -37 0 -9 -7 -22 -15 -29 -8 -7 -15 -21 -15 -32 0 -11 -6 -32
-14 -46 -29 -56 -46 -104 -46 -126 0 -13 -7 -26 -15 -30 -8 -3 -15 -14 -15
-24 0 -10 -7 -27 -15 -38 -8 -10 -15 -28 -15 -40 0 -11 -7 -29 -15 -40 -8 -10
-15 -27 -15 -37 0 -11 -6 -31 -13 -45 -36 -71 -68 -156 -74 -199 -3 -18 -11
-38 -19 -44 -8 -6 -14 -19 -14 -28 0 -10 -7 -26 -15 -37 -8 -10 -15 -30 -15
-44 0 -14 -7 -34 -15 -44 -8 -11 -15 -32 -15 -47 0 -14 -7 -32 -15 -39 -8 -7
-15 -21 -15 -30 0 -10 -6 -31 -14 -47 -32 -64 -46 -105 -46 -134 0 -17 -6 -32
-15 -35 -8 -4 -15 -16 -15 -28 0 -11 -7 -34 -15 -50 -8 -15 -15 -38 -15 -50
-1 -11 -7 -32 -15 -46 -8 -14 -14 -35 -15 -46 0 -12 -7 -27 -15 -34 -8 -7 -15
-24 -15 -39 -1 -14 -7 -37 -15 -51 -8 -14 -14 -40 -15 -58 0 -18 -7 -40 -15
-48 -8 -9 -15 -26 -15 -39 0 -12 -7 -25 -15 -29 -8 -3 -15 -18 -15 -33 0 -15
-7 -41 -15 -57 -17 -32 -20 -86 -5 -86 6 0 10 14 10 30 0 18 8 37 20 47 13 11
20 30 20 51 0 18 7 40 15 48 8 9 15 29 15 45 0 19 5 29 15 29 11 0 15 11 15
41 0 23 7 47 15 55 8 9 15 24 15 34 0 10 7 31 15 46 8 16 15 41 15 55 0 15 7
29 15 33 10 3 15 19 15 43 0 21 7 47 15 57 8 11 15 31 15 44 0 13 7 30 15 38
8 9 15 28 15 44 0 16 4 31 9 35 5 3 13 20 16 37 4 18 14 38 21 46 8 7 14 24
14 37 0 12 7 36 15 51 8 16 15 41 15 57 0 15 5 27 10 27 6 0 10 6 10 13 1 6 9
30 20 52 11 22 19 50 20 63 0 12 4 22 9 22 5 0 12 15 16 33 6 30 22 70 52 129
7 14 13 36 13 47 0 12 4 21 9 21 4 0 11 18 14 40 3 22 12 47 21 55 9 9 16 26
16 38 0 12 7 31 15 41 8 11 15 30 15 42 0 12 7 24 15 28 9 3 15 18 15 35 0 16
6 31 15 35 8 3 15 17 15 31 0 15 7 33 15 41 8 9 15 28 15 44 0 16 5 32 10 35
6 3 10 14 10 24 0 10 9 28 20 41 11 13 20 31 20 40 0 9 11 37 24 62 13 24 27
55 31 68 4 13 14 30 21 38 8 7 14 26 14 42 0 15 6 30 13 33 6 2 21 28 32 57
11 28 26 56 33 62 6 6 12 19 12 30 0 11 7 26 15 34 8 9 15 24 15 35 0 10 4 19
9 19 5 0 20 21 33 48 13 26 29 53 36 60 6 7 12 19 12 27 0 7 7 15 15 19 8 3
15 12 15 20 0 7 7 16 15 20 8 3 15 12 15 19 0 8 13 27 30 43 16 16 30 33 30
38 0 11 57 82 96 121 37 37 136 105 152 105 7 0 12 4 12 9 0 5 18 12 40 16 22
4 42 11 46 16 8 14 69 11 100 -6 16 -8 39 -15 51 -15 27 0 83 -31 83 -46 0 -6
9 -19 20 -29 11 -10 20 -26 20 -36 0 -10 4 -20 8 -23 14 -8 21 -200 12 -306
-10 -121 -28 -212 -42 -221 -6 -4 -13 -33 -16 -66 -3 -32 -9 -61 -14 -64 -5
-3 -11 -23 -14 -45 -3 -21 -12 -53 -20 -71 -8 -17 -14 -40 -14 -51 0 -12 -4
-24 -10 -27 -5 -3 -12 -28 -16 -55 -4 -28 -10 -50 -14 -50 -10 0 -50 -120 -50
-149 0 -33 24 -20 28 15 2 16 10 33 18 37 8 4 14 23 14 41 0 18 7 41 15 52 8
10 15 33 15 50 0 16 7 39 15 50 8 10 15 31 15 45 0 15 7 32 15 39 8 7 15 28
15 47 0 18 7 50 15 70 8 19 15 52 15 73 0 21 7 43 15 50 8 7 15 28 15 47 0 18
7 45 16 58 23 35 25 415 3 442 -8 10 -23 34 -33 53 -30 53 -86 100 -121 100
-16 0 -39 7 -49 15 -11 8 -36 15 -56 15 -20 0 -45 -7 -56 -15z"/>
<path d="M6626 8245 c-123 -52 -240 -150 -353 -298 -26 -34 -50 -64 -53 -67
-3 -3 -23 -32 -45 -65 -22 -33 -42 -62 -45 -65 -5 -4 -138 -221 -195 -318 -6
-9 -27 -43 -48 -74 -21 -32 -42 -68 -47 -80 -6 -13 -14 -30 -20 -38 -25 -39
-93 -155 -101 -174 -5 -12 -17 -34 -27 -51 -19 -31 -85 -151 -159 -290 -23
-44 -48 -91 -56 -105 -24 -42 -250 -496 -321 -645 -37 -77 -72 -147 -77 -155
-5 -8 -12 -22 -15 -30 -34 -87 -52 -123 -83 -168 -47 -70 -50 -76 -98 -192 -8
-19 -21 -48 -29 -63 -8 -16 -14 -36 -14 -46 0 -9 -7 -26 -15 -37 -8 -10 -15
-28 -15 -39 0 -11 -7 -29 -15 -39 -8 -11 -15 -29 -15 -41 0 -12 -7 -30 -15
-41 -8 -10 -15 -30 -15 -42 0 -13 -6 -36 -14 -50 -28 -55 -46 -103 -46 -125 0
-12 -7 -31 -15 -41 -8 -11 -15 -29 -15 -41 0 -12 -7 -30 -15 -41 -8 -10 -15
-30 -15 -44 0 -14 -7 -34 -15 -44 -8 -11 -15 -34 -15 -52 0 -17 -7 -37 -15
-44 -8 -7 -15 -28 -15 -47 0 -19 -6 -47 -14 -61 -19 -39 -37 -91 -46 -137 -4
-22 -12 -53 -19 -68 -6 -16 -11 -41 -11 -56 0 -15 -7 -36 -15 -47 -8 -10 -15
-31 -15 -45 0 -14 -7 -34 -15 -45 -8 -10 -15 -35 -15 -54 0 -19 -7 -57 -15
-84 -8 -27 -15 -68 -15 -91 0 -24 -7 -59 -15 -78 -20 -48 -20 -193 0 -227 8
-14 14 -34 15 -46 0 -34 66 -84 110 -84 44 0 137 47 206 105 61 52 263 232
289 259 11 12 43 39 70 61 28 22 55 44 61 50 18 17 124 109 214 185 47 40 87
76 90 80 3 3 30 25 60 48 30 23 78 60 105 83 28 22 65 53 84 67 18 15 38 32
45 37 32 28 159 106 221 135 39 18 82 39 97 46 14 8 40 14 56 14 16 0 43 7 58
15 39 20 153 19 218 -2 88 -28 116 -46 194 -121 l76 -72 -3 -168 c-2 -128 -6
-171 -17 -183 -8 -8 -14 -23 -14 -32 0 -9 -4 -17 -10 -17 -5 0 -13 -12 -16
-27 -8 -30 -7 -29 -59 -88 -19 -22 -35 -45 -35 -51 0 -7 -7 -14 -15 -18 -8 -3
-15 -16 -15 -30 0 -13 -7 -26 -15 -30 -8 -3 -15 -15 -15 -27 0 -12 -34 -58
-82 -112 -46 -50 -87 -97 -93 -103 -5 -7 -51 -56 -101 -110 -89 -96 -130 -142
-224 -255 -25 -29 -64 -74 -87 -100 -24 -25 -43 -51 -43 -58 0 -6 -3 -11 -7
-11 -5 0 -44 -44 -88 -97 -44 -53 -100 -120 -125 -149 -25 -29 -58 -69 -75
-90 -16 -20 -34 -42 -40 -48 -5 -6 -36 -43 -68 -81 -32 -39 -68 -81 -81 -95
-12 -14 -53 -63 -91 -110 -37 -47 -71 -87 -74 -90 -4 -3 -22 -25 -41 -50 -19
-25 -44 -56 -56 -70 -49 -56 -121 -141 -149 -176 -16 -20 -50 -59 -75 -87 -25
-27 -52 -59 -60 -71 -13 -19 -98 -118 -209 -246 -21 -25 -57 -67 -79 -95 -21
-27 -51 -63 -66 -78 -14 -15 -26 -30 -26 -33 0 -3 -12 -17 -28 -32 -15 -15
-37 -40 -49 -55 -30 -38 -116 -138 -184 -211 -31 -34 -75 -83 -99 -111 -23
-27 -50 -59 -59 -70 -10 -11 -36 -36 -59 -55 -37 -31 -40 -36 -26 -51 19 -21
139 -60 249 -82 44 -9 109 -22 145 -29 84 -17 373 -17 470 0 67 11 234 48 331
72 112 29 426 176 552 260 32 22 61 40 63 40 2 0 23 15 47 33 24 17 54 39 67
47 302 201 831 703 1295 1230 55 62 107 120 115 129 8 9 33 39 55 66 22 28 42
52 45 55 11 11 100 119 169 205 40 49 100 121 134 159 250 282 306 346 336
381 18 22 52 60 75 85 23 25 80 90 126 145 47 55 88 102 91 105 4 3 56 71 117
152 147 196 222 349 222 454 0 140 -86 270 -230 347 -95 51 -152 60 -247 41
-43 -9 -82 -20 -87 -25 -6 -5 -17 -9 -25 -9 -20 -1 -96 -38 -138 -67 -17 -13
-34 -23 -37 -23 -11 0 -108 -71 -171 -124 -116 -98 -126 -107 -680 -636 -231
-221 -312 -288 -356 -295 -84 -14 -137 22 -149 101 -6 41 -1 112 14 209 5 30
44 95 57 95 5 0 9 6 9 14 0 8 7 16 15 20 8 3 15 12 15 19 0 8 14 33 30 55 17
23 30 50 30 59 0 10 7 27 15 37 12 15 15 52 15 160 l0 141 94 190 c52 105 119
240 149 300 30 61 130 259 222 440 92 182 184 362 203 400 19 39 39 79 45 90
6 11 79 155 162 320 83 165 162 317 176 338 13 21 35 54 48 75 77 120 283 469
301 509 12 26 25 57 31 68 52 110 51 251 -3 348 -37 65 -101 111 -185 133 -93
24 -132 18 -253 -39 -59 -28 -95 -51 -185 -120 -41 -31 -221 -212 -270 -271
-22 -26 -45 -53 -50 -60 -6 -6 -51 -60 -99 -121 -49 -60 -96 -119 -105 -130
-118 -143 -274 -368 -606 -875 -59 -91 -133 -202 -164 -247 -31 -46 -61 -91
-66 -100 -19 -34 -70 -108 -82 -121 -7 -7 -13 -18 -13 -23 0 -5 -17 -33 -38
-62 -35 -47 -77 -113 -108 -168 -16 -29 -54 -54 -54 -37 0 11 53 122 88 183 6
11 33 67 60 125 28 58 71 150 97 205 26 55 64 136 85 180 21 44 61 130 89 190
29 61 56 117 61 125 6 8 15 26 21 40 33 78 381 752 402 778 25 32 317 611 317
629 0 9 21 58 40 95 18 33 32 153 27 227 -8 119 -66 208 -168 259 -39 19 -62
22 -150 22 -87 -1 -114 -5 -163 -25z"/>
<path d="M2565 8216 c-11 -7 -32 -16 -47 -20 -16 -3 -28 -11 -28 -16 0 -6 -9
-10 -19 -10 -11 0 -38 -23 -62 -52 -24 -29 -49 -57 -56 -61 -7 -4 -13 -17 -13
-27 0 -10 -4 -21 -9 -25 -6 -3 -21 -30 -35 -60 -14 -29 -31 -57 -36 -60 -6 -3
-10 -16 -10 -29 0 -12 -7 -31 -15 -42 -8 -10 -15 -28 -15 -40 0 -11 -7 -29
-15 -40 -8 -10 -15 -27 -15 -37 0 -10 -7 -25 -15 -33 -8 -9 -15 -25 -15 -37
-1 -12 -7 -33 -15 -47 -8 -14 -15 -36 -15 -50 0 -14 -7 -34 -15 -44 -8 -11
-15 -29 -15 -40 0 -12 -7 -30 -15 -40 -8 -11 -15 -34 -15 -51 0 -17 -7 -40
-15 -51 -8 -10 -15 -32 -15 -49 0 -16 -7 -39 -15 -49 -8 -11 -15 -30 -15 -42
0 -12 -7 -35 -15 -50 -8 -16 -15 -42 -15 -59 0 -16 -7 -39 -15 -49 -8 -11 -15
-32 -15 -47 0 -15 -7 -40 -15 -55 -8 -16 -15 -39 -15 -50 0 -12 -7 -35 -15
-50 -8 -16 -15 -45 -15 -65 0 -20 -7 -42 -15 -49 -8 -7 -15 -25 -15 -40 0 -15
-7 -33 -15 -40 -8 -7 -15 -28 -15 -47 0 -18 -7 -50 -15 -70 -8 -19 -15 -50
-15 -67 0 -17 -7 -40 -15 -50 -8 -11 -15 -30 -15 -43 0 -13 -7 -34 -15 -46 -8
-13 -16 -50 -17 -82 -1 -33 -8 -66 -15 -73 -7 -8 -13 -37 -13 -66 0 -28 -5
-57 -10 -62 -6 -6 -15 -33 -20 -60 -5 -27 -13 -67 -19 -89 -6 -22 -11 -59 -11
-83 0 -23 -7 -59 -15 -79 -8 -19 -15 -57 -15 -83 0 -26 -7 -67 -15 -90 -8 -23
-15 -60 -15 -81 0 -21 -7 -64 -15 -96 -8 -31 -15 -80 -15 -108 -1 -27 -7 -61
-15 -75 -8 -15 -14 -53 -15 -95 0 -38 -7 -92 -15 -119 -16 -53 -21 -176 -6
-176 10 0 21 48 21 94 0 17 7 49 15 71 8 22 14 70 15 107 0 37 4 79 10 93 5
14 13 59 16 98 3 40 12 86 18 102 7 17 14 59 15 95 1 37 7 67 14 72 7 4 13 39
15 85 2 43 9 84 14 90 6 7 13 43 15 80 3 38 9 73 13 78 4 6 11 41 15 80 4 38
13 79 21 90 8 11 14 43 14 73 0 34 5 59 15 68 8 9 15 33 15 54 0 21 7 51 15
66 8 16 15 41 15 55 0 15 7 40 15 55 8 16 15 47 15 69 0 22 7 49 15 59 8 11
15 34 15 52 0 18 5 34 10 36 6 2 13 27 17 55 3 29 9 50 13 48 11 -7 20 21 20
60 0 18 7 38 15 45 8 7 15 27 15 45 0 20 6 35 15 39 10 4 15 20 15 50 0 24 7
57 15 72 8 16 15 42 15 57 0 16 7 35 15 43 8 9 15 30 15 49 0 18 5 35 11 37 6
2 14 27 17 56 2 29 8 52 13 52 4 0 11 17 15 38 4 20 10 42 14 47 4 6 11 26 15
45 4 19 14 44 21 55 8 11 14 31 14 45 0 14 7 34 15 44 8 11 15 28 15 38 0 10
4 26 10 36 26 47 50 114 50 140 0 17 6 32 15 36 8 3 15 15 15 26 0 11 4 20 9
20 5 0 12 16 15 35 4 19 11 35 16 35 5 0 12 10 16 22 3 12 13 28 20 36 8 7 14
22 14 32 0 10 7 20 15 24 8 3 15 12 15 21 0 8 4 15 9 15 5 0 28 17 50 39 24
23 54 41 76 45 19 4 35 11 35 16 0 6 40 10 90 10 97 0 115 -6 171 -62 34 -34
55 -78 64 -133 4 -22 11 -46 17 -52 18 -22 11 -396 -8 -479 -11 -47 -14 -84
-9 -110 6 -33 9 -36 15 -19 5 11 9 43 9 71 1 33 6 56 16 64 22 18 22 454 0
496 -8 16 -15 42 -15 57 0 15 -6 30 -14 33 -8 3 -16 18 -19 33 -7 31 -69 101
-91 101 -7 0 -19 7 -26 15 -17 20 -176 21 -205 1z"/>
<path d="M5280 7975 c-14 -8 -35 -14 -46 -15 -12 0 -27 -7 -34 -15 -7 -8 -18
-15 -25 -15 -7 0 -15 -6 -18 -12 -3 -7 -21 -22 -42 -33 -46 -24 -225 -201
-225 -222 0 -5 -15 -23 -32 -40 -40 -37 -58 -59 -58 -70 0 -5 -12 -22 -27 -39
-31 -34 -50 -61 -60 -84 -3 -8 -18 -31 -32 -50 -15 -19 -38 -57 -51 -83 -35
-68 -46 -87 -59 -100 -6 -6 -11 -19 -11 -28 0 -9 -7 -22 -15 -29 -8 -7 -15
-20 -15 -30 0 -10 -7 -20 -15 -24 -8 -3 -15 -14 -15 -24 0 -11 -7 -25 -15 -32
-8 -7 -15 -21 -15 -32 0 -11 -13 -37 -30 -58 -16 -21 -30 -47 -30 -58 0 -11
-7 -25 -15 -32 -8 -7 -15 -20 -15 -30 0 -10 -7 -23 -15 -30 -8 -7 -15 -20 -15
-30 0 -10 -7 -23 -15 -30 -8 -7 -15 -20 -15 -30 0 -10 -7 -23 -15 -30 -8 -7
-15 -23 -15 -36 0 -13 -4 -24 -10 -24 -5 0 -12 -11 -16 -25 -3 -13 -12 -29
-20 -36 -8 -6 -14 -22 -14 -34 0 -12 -7 -28 -15 -35 -8 -7 -15 -20 -15 -30 0
-10 -7 -23 -15 -30 -8 -7 -15 -23 -15 -36 0 -12 -4 -25 -9 -28 -11 -7 -51 -88
-51 -103 0 -6 -7 -16 -15 -23 -8 -7 -15 -23 -15 -35 0 -12 -7 -28 -15 -35 -8
-7 -15 -23 -15 -35 0 -12 -7 -28 -15 -35 -8 -7 -15 -20 -15 -30 0 -10 -7 -23
-15 -30 -8 -7 -15 -23 -15 -37 0 -13 -7 -26 -15 -29 -8 -4 -15 -16 -15 -29 0
-12 -7 -28 -15 -35 -8 -7 -15 -18 -15 -24 0 -11 -33 -82 -91 -198 -16 -32 -29
-64 -29 -72 0 -7 -7 -19 -15 -26 -8 -7 -15 -23 -15 -35 0 -12 -7 -28 -15 -35
-8 -7 -15 -22 -15 -34 0 -12 -6 -30 -14 -41 -7 -11 -16 -32 -20 -47 -3 -16
-11 -28 -16 -28 -6 0 -10 -15 -10 -34 0 -21 -6 -36 -15 -40 -17 -6 -21 -56 -5
-56 6 0 13 13 16 29 4 17 12 32 20 35 8 3 14 17 14 31 0 14 4 25 10 25 5 0 13
12 16 28 4 15 13 36 20 47 8 11 14 30 14 43 0 13 7 30 15 38 8 9 15 26 15 39
0 13 4 25 8 27 11 4 52 85 52 102 0 8 7 16 15 20 9 3 15 18 15 40 0 21 6 36
15 40 8 3 15 13 15 23 0 10 7 27 15 37 8 11 15 26 15 34 0 7 7 20 15 28 8 9
15 26 15 39 0 13 4 26 9 29 14 9 51 85 51 105 0 11 4 21 8 23 13 5 52 87 52
108 0 11 4 20 10 20 5 0 13 12 16 27 4 15 13 34 21 41 7 7 13 19 13 26 0 7 14
38 30 69 17 31 30 63 30 72 0 8 4 15 8 15 10 0 52 93 52 114 0 8 7 16 15 20 8
3 15 15 15 26 0 12 7 28 15 36 8 9 15 24 15 34 0 10 7 20 15 24 8 3 15 16 15
28 0 13 7 32 15 42 8 11 15 28 15 38 0 10 4 18 10 18 8 0 50 79 50 95 0 4 7
13 15 21 8 9 15 26 15 39 0 12 7 25 15 29 8 3 15 14 15 24 0 11 7 25 15 32 8
7 15 17 15 22 0 5 7 16 15 24 8 9 15 24 15 35 0 10 4 19 9 19 5 0 14 12 20 28
11 28 31 63 42 72 3 3 16 28 30 55 13 28 29 55 34 61 6 6 17 22 25 34 8 13 22
31 30 40 22 24 40 52 46 73 4 9 13 17 20 17 8 0 14 6 14 13 0 6 20 34 45 62
25 27 45 56 45 62 0 7 5 13 10 13 10 0 50 36 50 46 0 6 73 74 81 74 3 0 21 14
39 30 18 17 42 30 52 30 10 0 21 6 24 14 3 8 20 17 39 20 18 4 35 12 37 18 6
18 158 11 179 -8 8 -7 20 -14 25 -14 17 0 68 -53 87 -91 25 -50 27 -287 3
-334 -9 -16 -16 -44 -16 -62 0 -17 -4 -34 -9 -38 -6 -3 -13 -25 -16 -50 -4
-24 -13 -46 -21 -49 -8 -3 -14 -18 -14 -35 0 -16 -7 -42 -15 -57 -8 -16 -15
-39 -15 -51 0 -12 -4 -24 -9 -27 -5 -3 -12 -22 -16 -42 -3 -20 -13 -43 -21
-51 -8 -8 -14 -30 -14 -49 0 -20 -7 -42 -15 -50 -8 -9 -15 -26 -15 -39 0 -13
-4 -26 -9 -29 -5 -3 -12 -22 -16 -42 -3 -20 -13 -43 -21 -51 -8 -8 -14 -23
-14 -33 0 -10 -7 -31 -15 -46 -8 -16 -15 -39 -15 -51 0 -13 -4 -23 -10 -23 -5
0 -12 -11 -16 -25 -3 -13 -12 -29 -20 -36 -8 -6 -14 -22 -14 -34 0 -13 -7 -36
-15 -51 -8 -16 -15 -44 -15 -61 0 -18 -4 -33 -9 -33 -6 0 -13 -20 -17 -45 -4
-28 -11 -45 -20 -45 -10 0 -14 -12 -14 -39 0 -22 -4 -42 -9 -45 -4 -3 -11 -21
-14 -41 -3 -19 -13 -42 -21 -51 -9 -8 -16 -27 -16 -42 0 -15 -7 -36 -15 -46
-8 -11 -15 -32 -15 -47 0 -15 -4 -30 -9 -33 -5 -4 -12 -24 -16 -46 -4 -22 -11
-40 -16 -40 -5 0 -12 -18 -15 -39 -4 -22 -13 -42 -20 -45 -8 -3 -14 -20 -14
-39 0 -18 -5 -38 -11 -44 -6 -6 -9 -21 -7 -34 4 -24 4 -24 16 4 6 15 16 27 22
27 5 0 10 18 10 40 0 27 5 43 15 46 9 4 15 19 15 41 0 19 7 41 15 49 8 9 15
26 15 38 0 13 7 29 15 36 8 7 15 20 15 29 0 9 7 29 15 45 8 15 15 39 15 53 0
14 6 37 14 51 28 56 46 103 46 125 0 13 7 32 15 43 8 10 15 27 15 37 0 11 6
31 14 45 18 36 37 91 43 124 3 15 11 33 19 39 8 6 14 24 14 39 0 15 7 33 15
40 8 7 15 27 15 45 0 18 7 38 15 45 8 7 15 22 15 34 0 12 7 31 15 42 8 10 15
28 15 39 0 11 7 29 15 39 8 11 15 34 15 52 0 17 7 37 15 44 8 7 15 22 15 34 0
12 7 31 15 42 8 10 15 30 15 44 0 14 7 34 15 44 8 11 15 34 15 52 0 17 7 37
15 44 8 7 15 21 15 31 0 10 6 36 14 56 30 85 46 139 46 157 0 11 7 28 17 38
13 15 16 42 16 160 0 124 -3 148 -21 180 -33 63 -83 112 -131 130 -55 22 -156
23 -191 3z"/>
<path d="M5452 7873 c5 -25 28 -28 28 -4 0 12 -6 21 -16 21 -9 0 -14 -7 -12
-17z"/>
<path d="M4356 7864 c-9 -22 -8 -24 9 -24 8 0 15 9 15 20 0 24 -15 27 -24 4z"/>
<path d="M4307 7463 c-4 -3 -7 -19 -7 -35 0 -15 -4 -28 -10 -28 -5 0 -13 -12
-16 -27 -4 -16 -13 -37 -20 -48 -8 -11 -14 -36 -14 -57 0 -20 -4 -39 -9 -43
-5 -3 -13 -20 -16 -37 -4 -18 -14 -38 -21 -46 -8 -7 -14 -24 -14 -37 0 -12 -7
-36 -15 -51 -8 -16 -15 -43 -15 -61 0 -17 -5 -33 -11 -35 -5 -2 -14 -19 -19
-38 -22 -86 -35 -125 -43 -131 -5 -4 -12 -27 -14 -53 -3 -25 -9 -46 -14 -46
-4 0 -10 -14 -14 -31 -4 -17 -13 -42 -21 -57 -8 -15 -14 -32 -14 -38 0 -7 -7
-25 -15 -40 -8 -16 -15 -41 -15 -55 0 -15 -7 -32 -15 -39 -8 -7 -15 -27 -15
-44 0 -17 -7 -40 -15 -50 -8 -11 -15 -27 -15 -37 0 -9 -7 -30 -15 -45 -8 -16
-15 -39 -15 -50 0 -12 -7 -27 -15 -34 -8 -7 -15 -28 -15 -47 0 -19 -7 -41 -15
-49 -8 -9 -15 -26 -15 -39 0 -12 -7 -25 -15 -29 -10 -4 -15 -20 -15 -51 0 -28
-6 -52 -15 -61 -8 -9 -15 -28 -15 -44 0 -15 -7 -41 -15 -56 -8 -16 -15 -41
-15 -56 0 -16 -4 -28 -10 -28 -5 0 -12 -17 -15 -37 -4 -21 -13 -52 -21 -70 -8
-17 -14 -40 -14 -51 0 -11 -7 -25 -15 -32 -8 -7 -15 -23 -15 -35 0 -13 -7 -36
-15 -51 -8 -16 -15 -36 -15 -45 0 -9 -7 -30 -15 -45 -8 -16 -15 -39 -15 -51 0
-12 -4 -25 -10 -28 -5 -3 -10 -10 -10 -16 0 -5 5 -9 10 -9 6 0 10 6 10 14 0 8
7 16 15 20 8 3 15 16 15 29 0 14 7 30 15 37 8 7 15 27 15 45 0 18 7 38 15 45
8 7 15 27 15 45 0 18 7 38 15 45 8 7 15 25 15 40 0 15 7 33 15 40 8 7 15 23
15 37 0 13 7 40 15 60 8 19 15 46 15 58 0 12 7 28 15 35 8 7 15 21 15 32 0 10
14 59 30 108 17 49 30 97 30 107 0 11 5 24 12 31 12 12 31 71 47 145 5 21 14
44 20 50 6 6 11 21 11 33 0 12 7 27 15 34 8 7 15 27 15 44 0 18 7 41 15 52 8
10 15 33 15 49 0 17 7 39 15 49 8 11 15 29 15 41 0 12 5 26 12 33 14 14 37 90
45 147 3 22 12 44 19 48 8 4 14 18 14 31 0 13 7 29 15 36 8 7 15 23 15 37 0
13 7 40 15 60 8 19 15 46 15 58 0 12 7 28 15 35 8 7 15 22 15 34 1 11 7 32 15
46 8 14 15 36 15 50 0 14 7 34 15 44 8 11 15 29 15 41 0 12 7 30 15 41 8 10
15 28 15 39 0 11 7 29 15 39 25 33 17 105 -8 79z"/>
<path d="M4767 7396 c-6 -15 1 -26 15 -26 4 0 8 9 8 20 0 23 -15 27 -23 6z"/>
<path d="M2872 7297 c-6 -16 -12 -43 -12 -61 0 -17 -4 -36 -10 -42 -5 -5 -13
-39 -16 -74 -4 -36 -12 -68 -17 -72 -6 -3 -13 -45 -15 -92 -2 -48 -8 -89 -13
-92 -5 -3 -9 -22 -9 -42 0 -20 -7 -50 -16 -67 -9 -16 -19 -64 -21 -105 -3 -41
-9 -80 -14 -85 -4 -6 -11 -35 -15 -65 -4 -30 -10 -60 -15 -66 -5 -6 -11 -37
-15 -70 -4 -32 -11 -62 -17 -65 -5 -4 -11 -37 -14 -75 -3 -38 -11 -83 -19
-101 -8 -17 -14 -51 -14 -75 0 -24 -4 -48 -10 -54 -13 -13 -25 -127 -16 -150
11 -29 26 2 26 54 0 23 6 53 14 65 7 12 16 52 19 89 4 38 11 77 17 87 5 11 10
40 10 64 0 25 7 61 15 80 8 20 15 51 15 69 1 18 7 44 15 58 8 14 14 48 15 77
0 28 5 64 12 80 6 15 15 55 19 88 7 58 16 96 45 199 8 26 14 71 14 100 1 28 7
62 15 76 8 14 14 46 15 71 0 25 7 60 16 77 10 20 14 51 12 89 -3 56 -4 57 -16
30z"/>
<path d="M1005 7130 c-92 -43 -177 -136 -233 -255 -31 -68 -45 -108 -49 -152
-3 -23 -11 -47 -19 -54 -8 -6 -14 -29 -14 -50 0 -21 -4 -49 -10 -63 -12 -32
-40 -247 -50 -376 -3 -52 -11 -108 -17 -125 -6 -16 -14 -91 -17 -165 -3 -74
-10 -189 -16 -255 -33 -397 -30 -1693 6 -2059 7 -82 14 -180 14 -218 0 -38 6
-79 12 -91 7 -12 16 -65 19 -117 4 -52 11 -120 17 -150 11 -55 30 -187 41
-291 4 -31 12 -63 18 -70 6 -8 13 -39 16 -69 5 -64 24 -162 39 -205 6 -16 13
-49 15 -73 3 -24 11 -46 19 -49 9 -3 14 -20 14 -43 0 -21 7 -54 15 -73 8 -20
15 -49 15 -64 0 -15 7 -37 15 -47 8 -11 15 -32 15 -47 0 -14 7 -32 15 -39 8
-7 15 -27 15 -46 0 -18 7 -39 15 -48 8 -8 15 -27 15 -41 0 -26 4 -36 44 -112
9 -17 16 -40 16 -50 0 -11 7 -28 15 -39 8 -10 15 -29 15 -40 0 -12 7 -27 15
-34 8 -7 15 -17 15 -23 0 -11 54 -130 71 -157 5 -8 12 -22 15 -30 3 -8 10 -22
15 -30 5 -8 13 -24 18 -35 5 -11 21 -37 35 -58 14 -21 26 -44 26 -52 0 -8 6
-18 14 -22 8 -4 24 -27 36 -51 12 -23 26 -42 31 -42 5 0 9 -5 9 -11 0 -13 59
-90 77 -102 7 -4 13 -12 13 -17 0 -5 12 -22 26 -37 15 -15 43 -48 63 -73 42
-52 243 -240 258 -240 2 0 30 -19 61 -43 31 -24 64 -47 72 -50 8 -4 29 -16 45
-26 49 -32 110 -61 127 -61 9 0 18 -4 20 -8 6 -14 88 -52 112 -52 13 0 29 -7
36 -15 7 -8 23 -15 36 -15 13 0 41 -6 61 -14 21 -7 61 -19 88 -26 70 -19 375
-25 461 -10 38 7 87 15 109 17 22 3 49 12 60 19 11 8 34 14 51 14 17 0 37 7
44 15 7 8 25 15 40 15 15 0 33 7 40 15 7 8 22 15 33 15 11 0 28 6 36 13 9 7
36 22 61 32 25 11 49 25 53 32 4 7 15 13 24 13 8 0 32 13 53 30 21 16 43 30
49 30 7 0 14 7 17 15 4 8 10 15 15 15 13 0 149 103 149 112 0 5 6 8 13 8 6 0
35 20 62 45 28 25 53 45 58 45 8 0 10 30 2 30 -9 0 -67 -43 -90 -66 -11 -11
-45 -38 -75 -59 -30 -21 -59 -44 -63 -52 -4 -7 -15 -13 -22 -13 -8 0 -15 -4
-15 -10 0 -5 -6 -10 -13 -10 -7 0 -20 -9 -30 -20 -9 -11 -24 -20 -32 -20 -8 0
-15 -4 -15 -10 0 -5 -5 -10 -10 -10 -12 0 -73 -41 -78 -52 -2 -5 -14 -8 -27
-8 -12 0 -28 -7 -35 -15 -7 -8 -21 -15 -32 -15 -10 0 -21 -6 -24 -14 -3 -8
-19 -18 -35 -21 -16 -4 -29 -10 -29 -14 0 -5 -19 -11 -41 -14 -23 -3 -45 -10
-48 -15 -3 -5 -27 -12 -53 -16 -27 -4 -48 -11 -48 -16 0 -5 -30 -11 -67 -15
-38 -3 -76 -10 -85 -15 -22 -12 -405 -13 -412 -1 -3 4 -32 11 -63 15 -32 4
-67 13 -77 21 -11 8 -34 15 -52 15 -18 0 -35 4 -38 9 -4 5 -24 12 -45 16 -22
4 -42 13 -45 21 -3 8 -19 14 -36 14 -16 0 -30 4 -30 9 0 5 -10 13 -22 17 -12
3 -28 13 -36 20 -7 8 -22 14 -33 14 -10 0 -19 4 -19 9 0 5 -11 12 -25 15 -14
4 -25 10 -25 15 0 5 -20 20 -45 32 -25 12 -45 26 -45 30 0 5 -20 20 -45 35
-25 14 -45 30 -45 35 0 5 -5 9 -11 9 -13 0 -259 243 -259 256 0 6 -13 21 -30
34 -16 14 -29 30 -30 35 0 6 -16 27 -35 49 -19 21 -35 44 -35 52 0 8 -4 14
-10 14 -5 0 -10 7 -10 15 0 7 -6 18 -12 22 -7 4 -22 25 -33 47 -11 21 -25 41
-32 43 -7 3 -13 16 -13 29 0 14 -6 27 -14 30 -8 3 -17 16 -20 30 -4 13 -11 24
-16 24 -6 0 -10 9 -10 19 0 11 -7 26 -15 35 -8 8 -15 24 -15 36 0 11 -6 23
-14 26 -8 3 -17 21 -20 40 -4 19 -11 34 -16 34 -6 0 -10 11 -10 24 0 13 -7 29
-15 36 -8 7 -15 23 -15 37 0 13 -7 26 -15 29 -9 4 -15 19 -15 39 0 19 -7 40
-15 49 -8 8 -15 26 -15 39 0 14 -7 30 -15 37 -8 7 -15 23 -15 37 0 13 -7 26
-15 29 -10 4 -15 21 -15 54 0 30 -6 54 -15 64 -8 8 -15 25 -15 38 0 13 -6 32
-14 43 -7 11 -17 39 -21 62 -4 24 -11 43 -16 43 -5 0 -9 22 -9 49 0 31 -6 55
-15 65 -8 8 -15 30 -15 48 0 19 -9 59 -20 91 -11 31 -20 70 -20 86 0 16 -4 32
-9 35 -4 3 -11 38 -14 77 -3 40 -11 77 -17 83 -5 5 -10 40 -10 76 0 39 -5 73
-14 85 -7 11 -17 63 -21 117 -4 54 -11 100 -16 104 -5 3 -9 43 -9 89 0 46 -6
104 -14 127 -8 25 -16 101 -18 180 -3 75 -9 143 -15 150 -7 8 -11 104 -12 263
-1 316 -11 574 -22 581 -13 8 -11 44 2 44 7 0 9 13 4 38 -10 55 -12 202 -3
208 4 3 8 10 8 15 0 6 -5 7 -10 4 -6 -3 -10 5 -10 19 0 13 6 26 13 28 9 4 13
102 15 433 2 274 7 436 14 448 6 11 14 95 19 186 4 91 12 198 18 236 5 39 10
99 10 135 1 37 5 70 10 75 5 6 12 52 15 104 3 52 10 97 16 101 6 4 14 33 16
66 3 32 12 73 20 91 8 17 14 45 14 61 0 17 4 33 9 36 5 3 12 22 16 42 3 20 13
43 21 51 8 8 14 23 14 33 0 10 7 20 15 24 8 3 15 13 15 23 0 20 63 93 79 93 6
0 11 7 11 15 0 8 7 15 15 15 9 0 18 7 21 15 4 8 14 15 24 15 10 0 25 7 34 15
11 11 40 15 120 15 63 0 106 -4 106 -10 0 -5 11 -12 25 -16 14 -3 25 -11 25
-16 0 -6 14 -27 30 -48 18 -23 30 -50 30 -68 0 -38 9 -64 21 -56 5 3 9 -36 9
-88 -1 -736 7 -2018 12 -2024 5 -4 10 -5 13 -2 3 3 5 473 5 1044 -1 954 -2
1044 -18 1105 -21 79 -89 179 -123 179 -9 0 -22 7 -29 15 -19 23 -192 19 -245
-5z"/>
<path d="M3235 6969 c-10 -15 3 -25 16 -12 7 7 7 13 1 17 -6 3 -14 1 -17 -5z"/>
<path d="M740 6395 c0 -8 7 -15 15 -15 8 0 15 7 15 15 0 8 -7 15 -15 15 -8 0
-15 -7 -15 -15z"/>
<path d="M4282 6399 c2 -7 10 -15 17 -17 8 -3 12 1 9 9 -2 7 -10 15 -17 17 -8
3 -12 -1 -9 -9z"/>
<path d="M5034 6167 c-3 -9 -4 -24 -2 -34 3 -16 5 -15 17 6 9 16 10 26 2 34
-7 7 -12 6 -17 -6z"/>
<path d="M4977 6043 c-4 -3 -7 -15 -7 -26 0 -16 3 -17 15 -7 8 7 15 19 15 26
0 15 -12 19 -23 7z"/>
<path d="M4187 5963 c-4 -3 -7 -13 -7 -21 0 -12 3 -12 15 -2 8 7 15 16 15 21
0 11 -14 12 -23 2z"/>
<path d="M1776 5945 c-6 -17 2 -45 14 -45 12 0 20 28 14 45 -4 8 -10 15 -14
15 -4 0 -10 -7 -14 -15z"/>
<path d="M1762 5870 c1 -13 9 -25 16 -28 17 -5 15 23 -4 39 -14 11 -15 10 -12
-11z"/>
<path d="M2566 5804 c-3 -9 -6 -41 -6 -73 0 -31 -5 -62 -10 -67 -6 -6 -13 -41
-17 -79 -3 -38 -12 -80 -20 -95 -7 -14 -13 -45 -13 -71 0 -25 -5 -50 -10 -55
-6 -6 -13 -41 -17 -79 -5 -56 -4 -67 8 -63 9 3 15 23 17 58 2 29 10 63 18 74
8 11 14 41 14 66 1 25 7 56 15 70 8 14 15 41 15 60 0 19 7 62 15 95 16 67 20
175 6 175 -5 0 -12 -7 -15 -16z"/>
<path d="M2707 5713 c-4 -3 -7 -16 -7 -28 0 -11 -6 -27 -12 -33 -13 -13 -34
-85 -45 -149 -3 -18 -11 -38 -19 -44 -8 -6 -14 -26 -14 -44 0 -18 -7 -38 -15
-45 -16 -14 -22 -110 -6 -110 11 0 21 25 21 50 0 10 7 31 15 46 8 16 15 39 15
50 0 12 7 35 15 50 8 16 15 42 15 57 0 16 7 35 15 43 8 9 15 24 15 33 0 10 7
35 15 54 22 54 17 96 -8 70z"/>
<path d="M2800 5710 c-8 -20 -7 -61 1 -65 15 -10 23 24 11 48 -6 12 -11 20
-12 17z"/>
<path d="M3600 5631 c-13 -25 -13 -41 1 -41 6 0 9 6 6 13 -2 6 0 20 5 30 5 9
6 17 4 17 -3 0 -10 -9 -16 -19z"/>
<path d="M2450 5585 c0 -20 4 -34 9 -31 5 3 9 17 9 31 0 14 -4 28 -9 31 -5 3
-9 -11 -9 -31z"/>
<path d="M1645 5260 c-7 -12 2 -30 16 -30 5 0 9 9 9 20 0 21 -15 27 -25 10z"/>
<path d="M2556 5234 c-9 -24 -7 -54 4 -54 6 0 10 16 10 35 0 38 -4 44 -14 19z"/>
<path d="M1636 5136 c-6 -26 1 -56 14 -56 11 0 23 57 15 70 -11 17 -23 11 -29
-14z"/>
<path d="M6527 4403 c-4 -3 -7 -13 -7 -21 0 -12 3 -12 15 -2 8 7 15 16 15 21
0 11 -14 12 -23 2z"/>
<path d="M1572 4139 c2 -7 10 -15 17 -17 8 -3 12 1 9 9 -2 7 -10 15 -17 17 -8
3 -12 -1 -9 -9z"/>
<path d="M930 2015 c0 -14 5 -25 10 -25 6 0 10 11 10 25 0 14 -4 25 -10 25 -5
0 -10 -11 -10 -25z"/>
</g>
</svg>
