<svg id="svg" version="1.1" xmlns="http://www.w3.org/2000/svg" xmlns:xlink="http://www.w3.org/1999/xlink" width="400" height="400" viewBox="0, 0, 400,400"><g id="svgg"><path id="path0" d="M300.463 31.297 C 300.190 31.570,299.119 31.795,298.083 31.797 C 296.536 31.799,296.210 31.925,296.256 32.500 C 296.286 32.885,296.061 33.200,295.756 33.200 C 295.450 33.200,295.200 33.020,295.200 32.800 C 295.200 32.580,294.840 32.400,294.400 32.400 C 293.960 32.400,293.600 32.580,293.600 32.800 C 293.600 33.020,293.280 33.200,292.888 33.200 C 292.497 33.200,291.917 33.560,291.600 34.000 C 291.283 34.440,290.780 34.800,290.483 34.800 C 289.844 34.800,288.800 35.767,288.800 36.359 C 288.800 36.588,288.550 36.679,288.244 36.562 C 287.690 36.349,280.007 43.491,279.993 44.232 C 279.990 44.434,279.264 45.313,278.380 46.184 C 277.008 47.536,276.807 47.945,277.005 48.984 C 277.216 50.086,277.184 50.134,276.668 49.491 C 276.141 48.835,276.047 48.894,275.388 50.291 C 274.996 51.121,274.344 52.091,273.938 52.447 C 273.532 52.803,273.200 53.348,273.200 53.659 C 273.200 53.969,272.840 54.483,272.400 54.800 C 271.960 55.117,271.600 55.620,271.600 55.917 C 271.600 56.214,271.328 56.729,270.996 57.061 C 270.664 57.393,270.512 57.858,270.658 58.094 C 270.808 58.336,270.737 58.408,270.496 58.260 C 270.257 58.112,269.835 58.525,269.537 59.198 C 269.244 59.859,268.869 60.400,268.702 60.400 C 268.536 60.400,268.400 60.670,268.400 61.000 C 268.400 61.330,268.220 61.600,268.000 61.600 C 267.780 61.600,267.600 61.870,267.600 62.200 C 267.600 62.530,267.420 62.800,267.200 62.800 C 266.980 62.800,266.800 63.120,266.800 63.512 C 266.800 63.903,266.440 64.483,266.000 64.800 C 265.560 65.117,265.200 65.697,265.200 66.088 C 265.200 66.480,265.020 66.800,264.800 66.800 C 264.580 66.800,264.400 67.160,264.400 67.600 C 264.400 68.040,264.232 68.400,264.027 68.400 C 263.822 68.400,263.546 68.739,263.415 69.152 C 263.284 69.566,262.822 70.314,262.388 70.814 C 261.314 72.052,261.399 72.466,262.662 72.149 C 263.634 71.905,263.701 71.963,263.452 72.841 C 263.302 73.368,262.908 75.960,262.575 78.600 C 260.944 91.541,260.667 93.460,259.804 97.800 C 259.454 99.560,258.726 103.340,258.186 106.200 C 257.646 109.060,257.041 112.120,256.843 113.000 C 256.645 113.880,255.995 116.850,255.399 119.600 C 253.670 127.583,253.395 128.743,252.082 133.600 C 251.398 136.130,250.574 139.190,250.251 140.400 C 249.928 141.610,248.914 145.120,247.998 148.200 C 247.083 151.280,246.187 154.340,246.007 155.000 C 245.271 157.704,242.718 165.554,239.631 174.600 C 237.829 179.880,234.295 190.410,231.776 198.000 C 229.258 205.590,227.007 212.340,226.774 213.000 C 224.907 218.293,221.890 227.225,221.637 228.209 C 221.037 230.536,218.778 232.942,210.411 240.165 C 200.251 248.935,196.200 247.748,196.200 236.000 C 196.200 232.361,196.402 229.057,196.689 228.000 C 196.958 227.010,197.636 224.220,198.195 221.800 C 199.465 216.303,200.209 213.470,201.453 209.400 C 201.991 207.640,202.625 205.480,202.862 204.600 C 203.099 203.720,203.435 202.550,203.608 202.000 C 203.782 201.450,204.685 198.570,205.615 195.600 C 206.545 192.630,207.436 189.840,207.594 189.400 C 208.602 186.600,209.418 184.226,210.276 181.600 C 210.816 179.950,211.424 178.287,211.628 177.905 C 211.833 177.523,212.000 176.884,212.000 176.485 C 212.000 176.086,212.162 175.589,212.359 175.380 C 212.557 175.171,213.298 173.297,214.006 171.216 C 215.391 167.146,215.687 166.368,216.904 163.603 C 217.339 162.615,218.017 160.815,218.410 159.603 C 218.803 158.391,219.695 156.192,220.392 154.716 C 221.089 153.241,221.601 151.649,221.530 151.179 C 221.454 150.677,220.190 153.432,218.466 157.862 C 216.852 162.008,215.380 165.760,215.196 166.200 C 214.221 168.523,211.600 175.901,211.600 176.322 C 211.600 176.591,211.431 177.123,211.225 177.505 C 209.999 179.775,203.814 198.709,200.807 209.400 C 200.621 210.060,200.166 211.680,199.795 213.000 C 196.006 226.480,194.489 236.457,195.585 240.690 C 197.953 249.842,203.315 248.094,219.200 232.990 C 222.384 229.963,232.069 221.502,238.648 216.000 C 239.569 215.230,242.415 212.836,244.973 210.679 C 264.581 194.151,276.780 189.781,287.909 195.301 C 290.840 196.755,294.769 200.500,296.285 203.286 C 297.391 205.318,298.000 205.713,298.000 204.400 C 298.000 203.960,298.180 203.600,298.400 203.600 C 298.620 203.600,298.800 203.280,298.800 202.888 C 298.800 202.497,299.160 201.917,299.600 201.600 C 300.070 201.261,300.400 200.565,300.400 199.912 C 300.400 199.300,300.580 198.800,300.800 198.800 C 301.020 198.800,301.200 198.440,301.200 198.000 C 301.200 197.560,301.380 197.200,301.600 197.200 C 301.820 197.200,302.000 196.840,302.000 196.400 C 302.000 195.960,302.180 195.600,302.400 195.600 C 302.620 195.600,302.800 195.240,302.800 194.800 C 302.800 194.360,302.980 194.000,303.200 194.000 C 303.420 194.000,303.600 193.655,303.600 193.233 C 303.600 192.812,303.737 192.407,303.904 192.333 C 304.071 192.260,305.011 190.580,305.994 188.600 C 306.977 186.620,307.903 184.910,308.054 184.799 C 308.204 184.689,308.453 183.924,308.608 183.099 C 308.762 182.275,309.049 181.600,309.245 181.600 C 309.440 181.600,309.600 181.240,309.600 180.800 C 309.600 180.360,309.780 180.000,310.000 180.000 C 310.220 180.000,310.400 179.640,310.400 179.200 C 310.400 178.760,310.580 178.400,310.800 178.400 C 311.020 178.400,311.200 178.040,311.200 177.600 C 311.200 177.160,311.380 176.800,311.600 176.800 C 311.820 176.800,312.000 176.440,312.000 176.000 C 312.000 175.560,312.146 175.200,312.325 175.200 C 312.504 175.200,312.898 174.570,313.200 173.800 C 313.502 173.030,313.896 172.400,314.075 172.400 C 314.254 172.400,314.400 172.040,314.400 171.600 C 314.400 171.160,314.580 170.800,314.800 170.800 C 315.020 170.800,315.200 170.440,315.200 170.000 C 315.200 169.560,315.380 169.200,315.600 169.200 C 315.820 169.200,316.000 168.840,316.000 168.400 C 316.000 167.960,316.180 167.600,316.400 167.600 C 316.620 167.600,316.800 167.240,316.800 166.800 C 316.800 166.360,316.980 166.000,317.200 166.000 C 317.420 166.000,317.600 165.680,317.600 165.288 C 317.600 164.897,317.960 164.317,318.400 164.000 C 318.840 163.683,319.200 163.103,319.200 162.712 C 319.200 162.320,319.342 162.000,319.515 162.000 C 320.031 162.000,320.003 160.250,319.482 159.918 C 319.166 159.718,319.277 159.610,319.802 159.606 C 320.324 159.602,320.799 159.145,321.159 158.300 C 321.464 157.585,322.003 156.640,322.357 156.200 C 323.308 155.017,324.000 153.687,324.000 153.042 C 324.000 152.365,326.061 148.258,326.496 148.067 C 326.663 147.993,326.800 147.588,326.800 147.167 C 326.800 146.745,326.980 146.400,327.200 146.400 C 327.781 146.400,327.692 144.504,327.100 144.265 C 326.825 144.154,327.005 144.049,327.500 144.032 C 328.053 144.012,328.400 143.748,328.400 143.347 C 328.400 142.988,328.729 142.403,329.130 142.047 C 329.532 141.691,330.116 140.815,330.428 140.100 C 330.740 139.385,331.152 138.800,331.343 138.800 C 331.534 138.800,331.612 138.260,331.515 137.600 C 331.394 136.781,331.507 136.400,331.869 136.400 C 332.161 136.400,332.400 136.080,332.400 135.688 C 332.400 135.297,332.760 134.717,333.200 134.400 C 333.640 134.083,334.000 133.503,334.000 133.112 C 334.000 132.720,334.180 132.400,334.400 132.400 C 334.620 132.400,334.800 132.040,334.800 131.600 C 334.800 131.160,334.980 130.800,335.200 130.800 C 335.420 130.800,335.600 130.440,335.600 130.000 C 335.600 129.560,335.420 129.200,335.200 129.200 C 334.980 129.200,334.800 129.020,334.800 128.800 C 334.800 128.580,335.160 128.400,335.600 128.400 C 336.073 128.400,336.400 128.133,336.400 127.747 C 336.400 127.388,336.725 126.803,337.122 126.447 C 337.835 125.808,339.600 122.371,339.600 121.622 C 339.600 121.409,340.050 120.572,340.600 119.762 C 341.150 118.951,341.600 117.953,341.600 117.544 C 341.600 117.135,341.780 116.800,342.000 116.800 C 342.220 116.800,342.400 116.440,342.400 116.000 C 342.400 115.560,342.580 115.200,342.800 115.200 C 343.020 115.200,343.200 114.880,343.200 114.488 C 343.200 114.097,343.560 113.517,344.000 113.200 C 344.440 112.883,344.800 112.343,344.800 112.000 C 344.800 111.657,345.160 111.117,345.600 110.800 C 346.040 110.483,346.400 109.903,346.400 109.512 C 346.400 109.120,346.580 108.800,346.800 108.800 C 347.020 108.800,347.200 108.570,347.200 108.288 C 347.200 108.007,347.560 107.517,348.000 107.200 C 348.440 106.883,348.800 106.343,348.800 106.000 C 348.800 105.657,349.160 105.117,349.600 104.800 C 350.040 104.483,350.400 103.903,350.400 103.512 C 350.400 103.120,350.580 102.800,350.800 102.800 C 351.020 102.800,351.200 102.506,351.200 102.147 C 351.200 101.788,351.515 101.203,351.900 100.847 C 352.285 100.491,352.659 99.930,352.730 99.600 C 352.802 99.270,353.027 98.940,353.230 98.867 C 353.434 98.793,353.600 98.428,353.600 98.055 C 353.600 97.682,353.960 97.117,354.400 96.800 C 354.840 96.483,355.200 95.903,355.200 95.512 C 355.200 95.120,355.380 94.800,355.600 94.800 C 355.820 94.800,356.000 94.506,356.000 94.147 C 356.000 93.788,356.324 93.203,356.720 92.847 C 357.553 92.099,358.800 89.576,358.800 88.640 C 358.800 88.288,358.980 88.000,359.200 88.000 C 359.420 88.000,359.600 87.640,359.600 87.200 C 359.600 86.760,359.780 86.400,360.000 86.400 C 360.220 86.400,360.400 86.040,360.400 85.600 C 360.400 85.160,360.580 84.800,360.800 84.800 C 361.020 84.800,361.200 84.440,361.200 84.000 C 361.200 83.560,361.399 83.200,361.642 83.200 C 361.916 83.200,362.026 82.593,361.931 81.600 C 361.822 80.452,361.931 80.000,362.316 80.000 C 362.742 80.000,362.814 79.191,362.664 76.100 C 362.446 71.587,362.062 69.200,361.556 69.200 C 361.360 69.200,361.200 68.939,361.200 68.621 C 361.200 67.860,356.485 63.076,355.200 62.533 C 352.797 61.518,351.150 61.200,348.295 61.200 C 346.619 61.200,345.136 61.380,345.000 61.600 C 344.864 61.820,344.234 62.000,343.600 62.000 C 342.966 62.000,342.336 62.180,342.200 62.400 C 342.064 62.620,341.643 62.800,341.265 62.800 C 340.886 62.800,340.317 63.160,340.000 63.600 C 339.683 64.040,339.103 64.400,338.712 64.400 C 338.320 64.400,338.000 64.580,338.000 64.800 C 338.000 65.020,337.764 65.200,337.475 65.200 C 337.187 65.200,336.564 65.560,336.092 66.000 C 335.620 66.440,335.032 66.800,334.785 66.800 C 334.539 66.800,333.646 67.520,332.800 68.400 C 331.954 69.280,331.089 70.000,330.876 70.000 C 330.516 70.000,327.209 73.208,324.735 75.955 C 324.150 76.605,323.565 77.032,323.435 76.902 C 323.306 76.773,323.200 77.042,323.200 77.500 C 323.200 77.958,322.975 78.424,322.700 78.535 C 322.300 78.696,322.300 78.743,322.700 78.768 C 322.975 78.786,323.200 78.999,323.200 79.243 C 323.200 79.486,322.923 79.579,322.585 79.449 C 321.942 79.203,317.600 83.182,317.600 84.017 C 317.600 84.256,316.700 85.329,315.600 86.400 C 314.500 87.471,313.600 88.554,313.600 88.805 C 313.600 89.057,312.880 89.954,312.000 90.800 C 311.120 91.646,310.400 92.494,310.400 92.685 C 310.400 92.877,309.770 93.701,309.000 94.518 C 308.230 95.334,307.600 96.205,307.600 96.454 C 307.600 96.703,307.251 97.209,306.825 97.578 C 306.399 97.948,305.994 98.505,305.925 98.816 C 305.856 99.127,305.125 100.047,304.300 100.859 C 303.475 101.672,302.800 102.549,302.800 102.808 C 302.800 103.067,302.260 103.783,301.600 104.400 C 300.940 105.017,300.400 105.769,300.400 106.072 C 300.400 106.375,300.040 106.883,299.600 107.200 C 299.160 107.517,298.800 107.967,298.800 108.199 C 298.800 108.432,298.256 109.247,297.591 110.011 C 295.693 112.191,295.600 112.329,295.600 112.983 C 295.600 113.322,295.450 113.600,295.268 113.600 C 295.085 113.600,294.680 114.095,294.368 114.700 C 294.055 115.305,293.395 116.248,292.900 116.796 C 292.405 117.344,292.000 118.109,292.000 118.496 C 292.000 118.883,291.820 119.200,291.600 119.200 C 291.380 119.200,291.200 119.520,291.200 119.912 C 291.200 120.303,290.840 120.883,290.400 121.200 C 289.960 121.517,289.600 122.057,289.600 122.400 C 289.600 122.743,289.240 123.283,288.800 123.600 C 288.360 123.917,288.000 124.379,288.000 124.626 C 288.000 124.874,287.640 125.402,287.200 125.800 C 286.760 126.198,286.400 126.726,286.400 126.974 C 286.400 127.221,286.040 127.683,285.600 128.000 C 285.160 128.317,284.800 128.857,284.800 129.200 C 284.800 129.543,284.440 130.083,284.000 130.400 C 283.560 130.717,283.200 131.257,283.200 131.600 C 283.200 131.943,282.840 132.483,282.400 132.800 C 281.960 133.117,281.600 133.657,281.600 134.000 C 281.600 134.343,281.240 134.883,280.800 135.200 C 279.893 135.853,279.758 136.636,280.500 136.935 C 280.775 137.046,280.607 137.151,280.127 137.168 C 279.618 137.187,279.146 137.539,278.996 138.013 C 278.854 138.460,278.302 139.262,277.769 139.795 C 277.236 140.328,276.800 141.042,276.800 141.382 C 276.800 141.722,276.620 142.000,276.400 142.000 C 276.180 142.000,276.000 142.227,276.000 142.504 C 276.000 142.781,275.550 143.493,275.000 144.087 C 274.450 144.680,274.000 145.443,274.000 145.783 C 274.000 146.122,273.820 146.400,273.600 146.400 C 273.380 146.400,273.200 146.636,273.200 146.925 C 273.200 147.213,272.840 147.836,272.400 148.308 C 271.960 148.780,271.600 149.372,271.600 149.623 C 271.600 149.874,271.060 150.583,270.400 151.200 C 269.740 151.817,269.200 152.609,269.200 152.960 C 269.200 153.312,269.020 153.600,268.800 153.600 C 268.580 153.600,268.400 153.920,268.400 154.312 C 268.400 154.703,268.040 155.283,267.600 155.600 C 267.160 155.917,266.800 156.457,266.800 156.800 C 266.800 157.143,266.440 157.683,266.000 158.000 C 265.560 158.317,265.200 158.807,265.200 159.088 C 265.200 159.370,265.020 159.600,264.800 159.600 C 264.580 159.600,264.400 159.341,264.400 159.024 C 264.400 158.707,264.580 158.336,264.800 158.200 C 265.020 158.064,265.200 157.513,265.200 156.976 C 265.200 156.439,265.380 156.000,265.600 156.000 C 265.820 156.000,266.000 155.640,266.000 155.200 C 266.000 154.760,266.180 154.400,266.400 154.400 C 266.620 154.400,266.800 154.040,266.800 153.600 C 266.800 153.160,266.980 152.800,267.200 152.800 C 267.420 152.800,267.600 152.440,267.600 152.000 C 267.600 151.560,267.780 151.200,268.000 151.200 C 268.220 151.200,268.400 150.840,268.400 150.400 C 268.400 149.960,268.580 149.600,268.800 149.600 C 269.020 149.600,269.200 149.240,269.200 148.800 C 269.200 148.360,269.380 148.000,269.600 148.000 C 269.820 148.000,270.000 147.640,270.000 147.200 C 270.000 146.760,270.180 146.400,270.400 146.400 C 270.620 146.400,270.800 145.860,270.800 145.200 C 270.800 144.540,270.935 144.000,271.101 144.000 C 271.605 144.000,275.200 136.511,275.200 135.460 C 275.200 135.097,275.380 134.800,275.600 134.800 C 275.820 134.800,276.000 134.440,276.000 134.000 C 276.000 133.560,276.180 133.200,276.400 133.200 C 276.620 133.200,276.800 132.840,276.800 132.400 C 276.800 131.960,276.980 131.600,277.200 131.600 C 277.420 131.600,277.600 131.240,277.600 130.800 C 277.600 130.360,277.420 130.000,277.200 130.000 C 276.980 130.000,276.800 129.747,276.800 129.437 C 276.800 129.072,277.080 128.948,277.600 129.084 C 278.163 129.231,278.400 129.096,278.400 128.630 C 278.400 128.265,278.760 127.580,279.200 127.108 C 279.640 126.636,280.000 126.013,280.000 125.725 C 280.000 125.436,280.180 125.200,280.400 125.200 C 280.620 125.200,280.800 124.750,280.800 124.200 C 280.800 123.650,280.980 123.200,281.200 123.200 C 281.420 123.200,281.600 122.840,281.600 122.400 C 281.600 121.960,281.780 121.600,282.000 121.600 C 282.220 121.600,282.400 121.240,282.400 120.800 C 282.400 120.360,282.580 120.000,282.800 120.000 C 283.020 120.000,283.200 119.640,283.200 119.200 C 283.200 118.760,283.380 118.400,283.600 118.400 C 283.820 118.400,284.000 118.040,284.000 117.600 C 284.000 117.160,284.180 116.800,284.400 116.800 C 284.620 116.800,284.800 116.440,284.800 116.000 C 284.800 115.560,284.980 115.200,285.200 115.200 C 285.420 115.200,285.600 114.840,285.600 114.400 C 285.600 113.960,285.780 113.600,286.000 113.600 C 286.220 113.600,286.400 113.240,286.400 112.800 C 286.400 112.360,286.580 112.000,286.800 112.000 C 287.020 112.000,287.200 111.680,287.200 111.288 C 287.200 110.897,287.560 110.317,288.000 110.000 C 288.440 109.683,288.800 109.138,288.800 108.790 C 288.800 108.037,290.712 104.102,291.235 103.779 C 291.436 103.654,291.600 103.203,291.600 102.776 C 291.600 102.349,291.780 102.000,292.000 102.000 C 292.220 102.000,292.400 101.640,292.400 101.200 C 292.400 100.760,292.580 100.400,292.800 100.400 C 293.020 100.400,293.200 99.942,293.200 99.383 C 293.200 98.824,293.560 97.980,294.000 97.508 C 294.440 97.036,294.800 96.413,294.800 96.125 C 294.800 95.836,294.980 95.600,295.200 95.600 C 295.420 95.600,295.600 95.240,295.600 94.800 C 295.600 94.360,295.780 94.000,296.000 94.000 C 296.220 94.000,296.400 93.640,296.400 93.200 C 296.400 92.760,296.580 92.400,296.800 92.400 C 297.020 92.400,297.200 92.130,297.200 91.800 C 297.200 91.470,297.380 91.200,297.600 91.200 C 297.820 91.200,298.000 90.880,298.000 90.488 C 298.000 90.097,298.360 89.517,298.800 89.200 C 299.240 88.883,299.600 88.303,299.600 87.912 C 299.600 87.520,299.780 87.200,300.000 87.200 C 300.220 87.200,300.400 86.840,300.400 86.400 C 300.400 85.960,300.580 85.600,300.800 85.600 C 301.020 85.600,301.200 85.240,301.200 84.800 C 301.200 84.360,301.380 84.000,301.600 84.000 C 301.820 84.000,302.000 83.680,302.000 83.288 C 302.000 82.897,302.360 82.317,302.800 82.000 C 303.240 81.683,303.600 81.103,303.600 80.712 C 303.600 80.320,303.780 80.000,304.000 80.000 C 304.220 80.000,304.400 79.640,304.400 79.200 C 304.400 78.760,304.580 78.400,304.800 78.400 C 305.020 78.400,305.200 77.984,305.200 77.475 C 305.200 76.967,305.520 76.202,305.911 75.775 C 306.818 74.788,308.800 70.728,308.800 69.860 C 308.800 69.497,308.980 69.200,309.200 69.200 C 309.420 69.200,309.600 68.840,309.600 68.400 C 309.600 67.960,309.780 67.600,310.000 67.600 C 310.220 67.600,310.400 67.240,310.400 66.800 C 310.400 66.360,310.580 66.000,310.800 66.000 C 311.020 66.000,311.200 65.640,311.200 65.200 C 311.200 64.760,311.400 64.400,311.645 64.400 C 311.913 64.400,312.020 63.920,311.915 63.200 C 311.794 62.381,311.907 62.000,312.269 62.000 C 312.561 62.000,312.800 61.640,312.800 61.200 C 312.800 60.760,312.980 60.400,313.200 60.400 C 313.420 60.400,313.600 60.040,313.600 59.600 C 313.600 59.160,313.780 58.800,314.000 58.800 C 314.220 58.800,314.400 58.440,314.400 58.000 C 314.400 57.560,314.580 57.200,314.800 57.200 C 315.020 57.200,315.200 56.750,315.200 56.200 C 315.200 55.650,315.380 55.200,315.600 55.200 C 315.820 55.200,316.000 54.660,316.000 54.000 C 316.000 53.340,315.820 52.800,315.600 52.800 C 315.380 52.800,315.200 52.620,315.200 52.400 C 315.200 52.180,315.560 52.000,316.000 52.000 C 316.667 52.000,316.800 51.733,316.800 50.400 C 316.800 49.520,316.620 48.800,316.400 48.800 C 316.171 48.800,316.000 47.600,316.000 46.000 C 316.000 44.400,316.171 43.200,316.400 43.200 C 316.999 43.200,316.882 41.625,316.236 40.978 C 315.925 40.668,315.766 40.051,315.882 39.607 C 316.001 39.153,315.898 38.800,315.647 38.800 C 315.401 38.800,315.200 38.527,315.200 38.193 C 315.200 36.942,309.970 32.226,309.151 32.738 C 308.145 33.366,307.945 33.321,308.082 32.500 C 308.175 31.946,307.865 31.773,306.600 31.673 C 305.720 31.604,304.829 31.379,304.620 31.173 C 304.064 30.628,301.043 30.717,300.463 31.297 M260.400 73.600 C 260.400 73.820,260.670 74.000,261.000 74.000 C 261.330 74.000,261.600 73.820,261.600 73.600 C 261.600 73.380,261.330 73.200,261.000 73.200 C 260.670 73.200,260.400 73.380,260.400 73.600 M259.010 76.604 C 258.576 77.592,258.081 78.400,257.910 78.400 C 257.740 78.400,257.600 78.670,257.600 79.000 C 257.600 79.330,257.703 79.600,257.829 79.600 C 258.298 79.600,259.200 78.435,259.200 77.829 C 259.200 77.483,259.399 77.200,259.643 77.200 C 259.886 77.200,259.979 76.923,259.850 76.585 C 259.715 76.235,259.869 75.872,260.207 75.742 C 260.928 75.465,260.994 74.799,260.300 74.804 C 260.025 74.806,259.445 75.616,259.010 76.604 M256.800 80.600 C 256.800 80.930,256.980 81.200,257.200 81.200 C 257.420 81.200,257.600 80.930,257.600 80.600 C 257.600 80.270,257.420 80.000,257.200 80.000 C 256.980 80.000,256.800 80.270,256.800 80.600 M254.900 83.798 C 254.384 84.385,254.226 85.200,254.629 85.200 C 255.021 85.200,256.000 84.078,256.000 83.629 C 256.000 83.040,255.500 83.117,254.900 83.798 M251.000 90.936 C 249.674 92.610,249.372 93.600,250.187 93.600 C 250.545 93.600,250.685 93.365,250.545 93.000 C 250.418 92.670,250.514 92.400,250.757 92.400 C 251.001 92.400,251.200 92.130,251.200 91.800 C 251.200 91.470,251.380 91.200,251.600 91.200 C 251.820 91.200,252.000 91.020,252.000 90.800 C 252.000 90.253,251.485 90.323,251.000 90.936 M248.000 96.200 C 248.000 96.530,248.180 96.800,248.400 96.800 C 248.620 96.800,248.800 96.530,248.800 96.200 C 248.800 95.870,248.620 95.600,248.400 95.600 C 248.180 95.600,248.000 95.870,248.000 96.200 M246.979 97.900 C 246.811 98.285,246.703 98.740,246.740 98.911 C 246.777 99.082,246.536 99.327,246.204 99.454 C 245.514 99.719,245.378 100.800,246.035 100.800 C 246.274 100.800,246.673 100.260,246.922 99.600 C 247.172 98.940,247.516 98.400,247.688 98.400 C 247.859 98.400,248.000 98.130,248.000 97.800 C 248.000 96.980,247.354 97.043,246.979 97.900 M242.400 106.400 C 242.400 106.620,242.670 106.800,243.000 106.800 C 243.330 106.800,243.600 106.620,243.600 106.400 C 243.600 106.180,243.330 106.000,243.000 106.000 C 242.670 106.000,242.400 106.180,242.400 106.400 M240.400 111.000 C 240.400 111.330,240.580 111.600,240.800 111.600 C 241.020 111.600,241.200 111.330,241.200 111.000 C 241.200 110.670,241.020 110.400,240.800 110.400 C 240.580 110.400,240.400 110.670,240.400 111.000 M239.263 112.847 C 238.884 113.455,238.857 113.817,239.167 114.127 C 239.478 114.438,239.600 114.368,239.600 113.880 C 239.600 113.506,239.780 113.200,240.000 113.200 C 240.220 113.200,240.400 112.930,240.400 112.600 C 240.400 111.745,239.881 111.858,239.263 112.847 M235.300 120.598 C 234.701 121.278,234.639 122.400,235.200 122.400 C 235.420 122.400,235.600 122.040,235.600 121.600 C 235.600 121.160,235.780 120.800,236.000 120.800 C 236.220 120.800,236.400 120.620,236.400 120.400 C 236.400 119.837,235.889 119.929,235.300 120.598 M229.200 133.000 C 229.200 133.367,229.394 133.602,229.630 133.523 C 229.867 133.445,230.060 133.209,230.060 133.000 C 230.060 132.791,229.867 132.556,229.630 132.477 C 229.394 132.398,229.200 132.633,229.200 133.000 M227.788 136.020 C 227.407 136.635,227.928 137.032,228.442 136.518 C 228.729 136.231,228.736 136.007,228.462 135.839 C 228.239 135.700,227.935 135.782,227.788 136.020 M226.800 137.787 C 226.800 138.145,227.035 138.285,227.400 138.145 C 227.730 138.018,228.000 137.754,228.000 137.557 C 228.000 137.361,227.730 137.200,227.400 137.200 C 227.070 137.200,226.800 137.464,226.800 137.787 M226.000 139.200 C 226.000 139.420,226.270 139.600,226.600 139.600 C 226.930 139.600,227.200 139.420,227.200 139.200 C 227.200 138.980,226.930 138.800,226.600 138.800 C 226.270 138.800,226.000 138.980,226.000 139.200 M224.000 144.600 C 224.000 144.930,224.180 145.200,224.400 145.200 C 224.620 145.200,224.800 144.930,224.800 144.600 C 224.800 144.270,224.620 144.000,224.400 144.000 C 224.180 144.000,224.000 144.270,224.000 144.600 M223.200 146.200 C 223.200 146.530,223.380 146.800,223.600 146.800 C 223.820 146.800,224.000 146.530,224.000 146.200 C 224.000 145.870,223.820 145.600,223.600 145.600 C 223.380 145.600,223.200 145.870,223.200 146.200 M264.400 160.148 C 264.400 160.424,264.040 161.036,263.600 161.508 C 263.160 161.980,262.800 162.554,262.800 162.783 C 262.800 163.012,262.620 163.200,262.400 163.200 C 262.180 163.200,262.000 162.930,262.000 162.600 C 262.000 162.270,262.180 162.000,262.400 162.000 C 262.620 162.000,262.800 161.640,262.800 161.200 C 262.800 160.760,262.980 160.400,263.200 160.400 C 263.420 160.400,263.600 160.119,263.600 159.776 C 263.600 159.433,263.780 159.264,264.000 159.400 C 264.220 159.536,264.400 159.873,264.400 160.148 M361.587 192.146 C 361.476 192.257,360.939 192.426,360.393 192.522 C 358.038 192.935,356.800 193.324,356.800 193.650 C 356.800 193.843,356.260 194.000,355.600 194.000 C 354.569 194.000,354.393 194.155,354.354 195.100 C 354.325 195.777,354.237 195.931,354.124 195.500 C 353.932 194.766,352.800 194.509,352.800 195.200 C 352.800 195.420,352.440 195.600,352.000 195.600 C 351.560 195.600,351.200 195.780,351.200 196.000 C 351.200 196.220,350.840 196.400,350.400 196.400 C 349.960 196.400,349.600 196.580,349.600 196.800 C 349.600 197.020,349.364 197.200,349.075 197.200 C 348.787 197.200,348.164 197.560,347.692 198.000 C 347.220 198.440,346.596 198.800,346.305 198.800 C 346.014 198.800,345.517 199.160,345.200 199.600 C 344.883 200.040,344.415 200.400,344.160 200.400 C 343.905 200.400,343.065 201.120,342.294 202.000 C 341.522 202.880,340.679 203.600,340.420 203.600 C 340.160 203.600,339.071 204.500,338.000 205.600 C 336.929 206.700,335.866 207.600,335.639 207.600 C 334.468 207.600,323.200 219.025,323.200 220.213 C 323.200 220.536,322.924 220.800,322.587 220.800 C 322.249 220.800,321.349 221.424,320.587 222.187 C 319.824 222.949,319.200 223.849,319.200 224.187 C 319.200 224.576,318.831 224.800,318.189 224.800 C 316.840 224.800,315.374 226.132,306.800 235.148 C 305.810 236.190,304.685 237.161,304.300 237.308 C 303.915 237.455,303.600 237.861,303.600 238.211 C 303.600 238.561,303.432 238.744,303.227 238.617 C 303.022 238.490,302.572 238.790,302.227 239.282 C 301.882 239.775,301.600 240.020,301.600 239.827 C 301.600 239.634,301.149 239.999,300.597 240.638 C 299.764 241.603,299.703 241.823,300.234 241.936 C 300.697 242.035,300.795 242.313,300.589 242.936 C 300.433 243.411,300.178 244.970,300.025 246.400 C 299.377 252.419,296.524 258.137,290.671 265.151 C 281.060 276.666,250.047 307.760,229.000 326.982 C 226.140 329.594,223.619 331.926,223.398 332.165 C 223.177 332.404,221.017 334.400,218.598 336.600 C 216.179 338.800,214.110 340.695,214.000 340.811 C 213.890 340.927,211.370 343.176,208.400 345.808 C 205.430 348.440,201.101 352.305,198.779 354.397 C 196.458 356.488,192.679 359.820,190.381 361.800 C 188.084 363.780,185.428 366.151,184.481 367.068 C 183.290 368.222,182.270 368.819,181.179 369.004 C 179.224 369.334,179.104 370.000,181.000 370.000 C 181.770 370.000,182.400 370.180,182.400 370.400 C 182.400 370.620,183.300 370.800,184.400 370.800 C 185.500 370.800,186.400 370.980,186.400 371.200 C 186.400 371.767,189.055 371.697,190.002 371.106 C 190.680 370.683,190.883 370.740,191.419 371.506 C 192.351 372.837,210.400 372.926,210.400 371.600 C 210.400 370.732,212.510 370.407,213.000 371.200 C 213.322 371.722,216.800 371.722,216.800 371.200 C 216.800 370.980,217.700 370.800,218.800 370.800 C 219.900 370.800,220.800 370.620,220.800 370.400 C 220.800 370.180,221.430 370.000,222.200 370.000 C 222.970 370.000,223.600 369.820,223.600 369.600 C 223.600 369.380,223.960 369.200,224.400 369.200 C 224.840 369.200,225.200 369.031,225.200 368.824 C 225.200 368.617,225.875 368.392,226.700 368.324 C 227.841 368.230,228.187 368.033,228.144 367.500 C 228.114 367.115,228.249 366.800,228.444 366.800 C 228.640 366.800,228.800 366.980,228.800 367.200 C 228.800 367.420,229.250 367.600,229.800 367.600 C 230.350 367.600,230.800 367.420,230.800 367.200 C 230.800 366.980,231.340 366.800,232.000 366.800 C 232.660 366.800,233.200 366.620,233.200 366.400 C 233.200 366.180,233.560 366.000,234.000 366.000 C 234.440 366.000,234.800 365.820,234.800 365.600 C 234.800 365.380,235.160 365.200,235.600 365.200 C 236.040 365.200,236.400 365.020,236.400 364.800 C 236.400 364.580,236.760 364.400,237.200 364.400 C 237.640 364.400,238.000 364.220,238.000 364.000 C 238.000 363.780,238.540 363.600,239.200 363.600 C 239.860 363.600,240.400 363.420,240.400 363.200 C 240.400 362.980,240.670 362.800,241.000 362.800 C 241.330 362.800,241.600 362.620,241.600 362.400 C 241.600 362.180,241.960 362.000,242.400 362.000 C 242.840 362.000,243.200 361.820,243.200 361.600 C 243.200 361.380,243.520 361.200,243.912 361.200 C 244.303 361.200,244.883 360.840,245.200 360.400 C 245.517 359.960,246.097 359.600,246.488 359.600 C 246.880 359.600,247.200 359.336,247.200 359.013 C 247.200 358.667,247.436 358.516,247.772 358.645 C 248.426 358.896,251.200 357.690,251.200 357.154 C 251.200 356.959,251.436 356.800,251.725 356.800 C 252.013 356.800,252.636 356.440,253.108 356.000 C 253.580 355.560,254.204 355.200,254.495 355.200 C 254.786 355.200,255.283 354.840,255.600 354.400 C 255.917 353.960,256.391 353.600,256.653 353.600 C 256.915 353.600,257.583 353.060,258.139 352.400 C 258.694 351.740,259.390 351.200,259.686 351.200 C 259.982 351.200,260.483 350.840,260.800 350.400 C 261.117 349.960,261.625 349.600,261.928 349.600 C 262.231 349.600,262.983 349.060,263.600 348.400 C 264.217 347.740,264.930 347.200,265.186 347.200 C 265.442 347.200,266.529 346.300,267.600 345.200 C 268.671 344.100,269.748 343.200,269.992 343.200 C 270.236 343.200,270.886 342.750,271.436 342.200 C 271.986 341.650,272.570 341.200,272.733 341.200 C 272.896 341.200,274.697 339.580,276.734 337.600 C 278.772 335.620,280.616 334.000,280.832 334.000 C 281.286 334.000,304.598 310.671,307.000 307.813 C 307.880 306.766,310.085 304.402,311.900 302.561 C 313.715 300.719,315.200 299.019,315.200 298.784 C 315.200 298.548,316.288 297.287,317.618 295.982 C 319.054 294.573,319.989 293.331,319.918 292.926 C 319.851 292.536,320.196 292.043,320.726 291.773 C 322.066 291.089,323.976 289.184,324.688 287.818 C 325.028 287.168,326.002 285.967,326.853 285.149 C 327.704 284.332,328.400 283.457,328.400 283.205 C 328.400 282.954,329.300 281.871,330.400 280.800 C 331.500 279.729,332.400 278.646,332.400 278.395 C 332.400 278.143,333.120 277.246,334.000 276.400 C 334.880 275.554,335.600 274.748,335.600 274.607 C 335.600 274.466,336.730 273.210,338.111 271.815 C 339.492 270.420,340.887 268.766,341.211 268.140 C 341.535 267.513,343.015 265.794,344.500 264.319 C 345.985 262.845,347.205 261.405,347.212 261.119 C 347.219 260.834,347.775 260.150,348.449 259.600 C 349.122 259.050,350.152 258.088,350.737 257.461 C 351.322 256.835,352.205 255.948,352.700 255.489 C 353.195 255.031,353.600 254.498,353.600 254.306 C 353.600 254.113,354.680 252.896,356.000 251.600 C 357.320 250.304,358.400 248.968,358.400 248.631 C 358.400 248.293,359.390 247.027,360.600 245.817 C 361.810 244.607,362.800 243.383,362.800 243.097 C 362.800 242.811,363.180 242.312,363.644 241.988 C 365.051 241.008,366.800 239.302,366.800 238.910 C 366.800 238.707,367.700 237.578,368.800 236.400 C 369.900 235.222,370.800 234.093,370.800 233.890 C 370.800 233.687,371.310 233.044,371.933 232.460 C 373.643 230.861,374.172 229.704,373.299 229.475 C 372.867 229.363,373.018 229.275,373.692 229.246 C 374.533 229.211,374.848 228.946,375.060 228.100 C 375.211 227.495,375.844 226.523,376.467 225.940 C 377.090 225.356,377.600 224.681,377.600 224.440 C 377.600 224.198,377.780 224.000,378.000 224.000 C 378.220 224.000,378.400 223.680,378.400 223.288 C 378.400 222.897,378.760 222.317,379.200 222.000 C 379.640 221.683,380.000 221.114,380.000 220.735 C 380.000 220.357,380.180 219.936,380.400 219.800 C 380.620 219.664,380.800 219.113,380.800 218.576 C 380.800 218.039,380.980 217.600,381.200 217.600 C 381.420 217.600,381.600 217.240,381.600 216.800 C 381.600 216.360,381.420 216.000,381.200 216.000 C 380.980 216.000,380.800 215.747,380.800 215.437 C 380.800 215.072,381.080 214.948,381.600 215.084 C 382.369 215.285,382.400 215.096,382.400 210.200 C 382.400 205.304,382.369 205.115,381.600 205.316 C 381.160 205.431,380.800 205.362,380.800 205.163 C 380.800 204.963,380.980 204.800,381.200 204.800 C 381.420 204.800,381.600 204.350,381.600 203.800 C 381.600 203.250,381.420 202.800,381.200 202.800 C 380.980 202.800,380.800 202.527,380.800 202.194 C 380.800 200.822,373.934 194.603,373.330 195.428 C 372.807 196.143,372.783 196.130,372.888 195.194 C 372.975 194.429,372.795 194.173,372.100 194.073 C 371.605 194.002,371.200 193.796,371.200 193.616 C 371.200 193.435,370.705 193.149,370.100 192.981 C 369.495 192.813,368.730 192.587,368.400 192.480 C 367.509 192.192,361.820 191.913,361.587 192.146 M287.916 233.049 C 287.632 233.406,286.313 234.891,284.984 236.349 C 270.843 251.865,266.696 256.550,263.209 260.950 C 262.664 261.637,261.554 262.920,260.742 263.800 C 259.930 264.680,258.850 265.940,258.341 266.600 C 257.833 267.260,257.223 268.003,256.986 268.251 C 256.460 268.801,255.063 270.457,246.934 280.162 C 243.450 284.321,239.970 288.501,239.200 289.450 C 237.878 291.079,231.959 298.228,228.000 302.977 C 227.010 304.164,222.600 309.411,218.200 314.637 C 213.800 319.862,209.750 324.687,209.200 325.358 C 208.650 326.030,207.471 327.394,206.579 328.390 C 205.688 329.385,203.234 332.270,201.126 334.800 C 199.019 337.330,196.893 339.850,196.403 340.400 C 195.912 340.950,194.856 342.210,194.056 343.200 C 193.256 344.190,191.768 345.900,190.749 347.000 C 189.729 348.100,188.125 349.900,187.183 351.000 C 184.121 354.577,179.870 359.292,176.500 362.850 C 173.497 366.021,172.533 367.600,173.600 367.600 C 173.820 367.600,174.000 367.306,174.000 366.946 C 174.000 366.586,174.405 365.886,174.900 365.391 C 176.401 363.888,179.708 360.339,181.975 357.800 C 183.153 356.480,184.946 354.486,185.959 353.370 C 186.971 352.253,188.477 350.514,189.304 349.506 C 190.131 348.497,191.841 346.516,193.104 345.103 C 194.367 343.690,196.210 341.575,197.200 340.402 C 198.190 339.229,199.720 337.432,200.600 336.408 C 201.480 335.383,202.859 333.748,203.664 332.773 C 205.527 330.516,207.187 328.554,210.222 325.020 C 214.274 320.303,232.947 297.971,233.777 296.850 C 234.204 296.272,235.246 294.990,236.093 294.000 C 238.793 290.841,238.968 290.633,240.795 288.397 C 241.781 287.189,242.689 286.110,242.811 286.000 C 243.122 285.720,250.913 276.420,253.869 272.800 C 255.217 271.150,256.652 269.440,257.060 269.000 C 257.467 268.560,258.610 267.210,259.600 266.000 C 260.589 264.790,262.010 263.129,262.756 262.309 C 263.502 261.488,264.385 260.428,264.719 259.952 C 265.052 259.476,265.993 258.347,266.810 257.443 C 267.627 256.539,269.237 254.720,270.388 253.400 C 271.539 252.080,273.322 250.100,274.350 249.000 C 276.534 246.664,286.336 235.794,287.379 234.550 C 287.814 234.031,288.387 233.776,288.846 233.896 C 289.409 234.043,289.600 233.879,289.600 233.247 C 289.600 232.240,288.647 232.129,287.916 233.049 M287.767 236.142 C 287.384 237.139,287.785 241.732,288.269 241.891 C 288.600 242.000,288.743 241.099,288.758 238.823 C 288.777 235.870,288.333 234.668,287.767 236.142 M297.821 243.029 C 297.283 243.426,297.171 243.731,297.458 244.018 C 297.746 244.306,298.028 244.248,298.375 243.830 C 299.117 242.936,298.723 242.365,297.821 243.029 M291.200 245.400 C 291.200 245.730,291.470 246.000,291.800 246.000 C 292.130 246.000,292.400 245.730,292.400 245.400 C 292.400 245.070,292.130 244.800,291.800 244.800 C 291.470 244.800,291.200 245.070,291.200 245.400 M293.867 245.067 C 293.360 245.574,293.603 246.000,294.400 246.000 C 294.844 246.000,295.200 245.733,295.200 245.400 C 295.200 244.791,294.354 244.579,293.867 245.067 " stroke="none" fill="#5b248a" fill-rule="evenodd"></path><path id="path1" d="M188.800 8.000 C 188.800 8.220,188.143 8.400,187.340 8.400 C 185.906 8.400,181.600 10.263,181.600 10.884 C 181.600 11.058,181.321 11.200,180.981 11.200 C 180.430 11.200,179.013 12.565,173.203 18.691 C 172.322 19.621,171.600 20.583,171.600 20.830 C 171.600 21.077,171.060 21.783,170.400 22.400 C 169.740 23.017,169.200 23.769,169.200 24.072 C 169.200 24.375,168.840 24.883,168.400 25.200 C 167.960 25.517,167.600 25.967,167.600 26.200 C 167.600 26.433,167.240 26.883,166.800 27.200 C 166.360 27.517,166.000 28.014,166.000 28.305 C 166.000 28.596,165.640 29.220,165.200 29.692 C 164.760 30.164,164.400 30.787,164.400 31.075 C 164.400 31.364,164.220 31.600,164.000 31.600 C 163.780 31.600,163.600 31.960,163.600 32.400 C 163.600 32.840,163.420 33.200,163.200 33.200 C 162.980 33.200,162.800 33.478,162.800 33.817 C 162.800 34.156,162.440 34.820,162.000 35.292 C 161.560 35.764,161.200 36.387,161.200 36.675 C 161.200 36.964,161.020 37.200,160.800 37.200 C 160.580 37.200,160.400 37.740,160.400 38.400 C 160.400 39.060,160.220 39.600,160.000 39.600 C 159.780 39.600,159.600 39.960,159.600 40.400 C 159.600 40.840,159.428 41.200,159.218 41.200 C 159.008 41.200,158.718 41.830,158.574 42.600 C 158.429 43.370,158.151 44.000,157.955 44.000 C 157.760 44.000,157.600 44.360,157.600 44.800 C 157.600 45.240,157.420 45.600,157.200 45.600 C 156.980 45.600,156.800 45.960,156.800 46.400 C 156.800 46.840,156.620 47.200,156.400 47.200 C 156.180 47.200,156.000 47.658,156.000 48.217 C 156.000 48.776,155.640 49.620,155.200 50.092 C 154.760 50.564,154.400 51.367,154.400 51.875 C 154.400 52.384,154.220 52.800,154.000 52.800 C 153.780 52.800,153.600 53.160,153.600 53.600 C 153.600 54.040,153.420 54.400,153.200 54.400 C 152.980 54.400,152.800 54.940,152.800 55.600 C 152.800 56.260,152.620 56.800,152.400 56.800 C 152.180 56.800,152.000 57.160,152.000 57.600 C 152.000 58.040,151.865 58.401,151.700 58.403 C 151.341 58.407,150.400 60.344,150.400 61.080 C 150.400 61.366,150.220 61.600,150.000 61.600 C 149.780 61.600,149.600 62.050,149.600 62.600 C 149.600 63.150,149.420 63.600,149.200 63.600 C 148.980 63.600,148.800 64.140,148.800 64.800 C 148.800 65.460,148.620 66.000,148.400 66.000 C 148.180 66.000,148.000 66.360,148.000 66.800 C 148.000 67.240,147.820 67.600,147.600 67.600 C 147.380 67.600,147.200 67.960,147.200 68.400 C 147.200 68.840,147.020 69.200,146.800 69.200 C 146.580 69.200,146.400 69.740,146.400 70.400 C 146.400 71.060,146.220 71.600,146.000 71.600 C 145.780 71.600,145.600 72.140,145.600 72.800 C 145.600 73.460,145.420 74.000,145.200 74.000 C 144.980 74.000,144.800 74.450,144.800 75.000 C 144.800 75.550,144.620 76.000,144.400 76.000 C 144.180 76.000,144.000 76.265,144.000 76.588 C 144.000 76.911,143.640 77.817,143.200 78.600 C 142.760 79.383,142.400 80.368,142.400 80.789 C 142.400 81.209,142.233 81.656,142.028 81.783 C 141.823 81.909,141.533 83.000,141.382 84.206 C 141.231 85.413,140.949 86.400,140.754 86.400 C 140.559 86.400,140.400 86.760,140.400 87.200 C 140.400 87.640,140.220 88.000,140.000 88.000 C 139.780 88.000,139.600 88.360,139.600 88.800 C 139.600 89.240,139.420 89.600,139.200 89.600 C 138.980 89.600,138.800 90.039,138.800 90.576 C 138.800 91.113,138.620 91.664,138.400 91.800 C 138.180 91.936,138.000 92.487,138.000 93.024 C 138.000 93.561,137.820 94.000,137.600 94.000 C 137.380 94.000,137.200 94.540,137.200 95.200 C 137.200 95.860,137.020 96.400,136.800 96.400 C 136.580 96.400,136.400 96.672,136.400 97.005 C 136.400 97.593,136.233 98.018,135.262 99.895 C 135.008 100.387,134.800 101.141,134.800 101.571 C 134.800 102.001,134.620 102.464,134.400 102.600 C 134.180 102.736,134.000 103.377,134.000 104.024 C 134.000 104.671,133.820 105.200,133.600 105.200 C 133.380 105.200,133.200 105.740,133.200 106.400 C 133.200 107.060,133.020 107.600,132.800 107.600 C 132.580 107.600,132.400 107.960,132.400 108.400 C 132.400 108.840,132.220 109.200,132.000 109.200 C 131.780 109.200,131.600 109.560,131.600 110.000 C 131.600 110.440,131.420 110.800,131.200 110.800 C 130.980 110.800,130.800 111.239,130.800 111.776 C 130.800 112.313,130.620 112.864,130.400 113.000 C 130.180 113.136,130.000 113.867,130.000 114.624 C 130.000 115.381,129.820 116.000,129.600 116.000 C 129.380 116.000,129.200 116.540,129.200 117.200 C 129.200 117.860,129.020 118.400,128.800 118.400 C 128.580 118.400,128.400 118.760,128.400 119.200 C 128.400 119.640,128.264 120.000,128.097 120.000 C 127.731 120.000,126.800 122.867,126.800 123.994 C 126.800 124.437,126.620 124.800,126.400 124.800 C 126.180 124.800,126.000 125.239,126.000 125.776 C 126.000 126.313,125.833 126.856,125.628 126.983 C 125.423 127.109,125.133 128.200,124.982 129.406 C 124.831 130.613,124.549 131.600,124.354 131.600 C 124.159 131.600,124.000 131.960,124.000 132.400 C 124.000 132.840,123.820 133.200,123.600 133.200 C 123.380 133.200,123.200 133.920,123.200 134.800 C 123.200 135.680,123.020 136.400,122.800 136.400 C 122.580 136.400,122.400 136.940,122.400 137.600 C 122.400 138.260,122.220 138.800,122.000 138.800 C 121.780 138.800,121.600 139.340,121.600 140.000 C 121.600 140.660,121.465 141.201,121.300 141.203 C 120.894 141.207,120.000 143.186,120.000 144.080 C 120.000 144.476,119.820 144.800,119.600 144.800 C 119.380 144.800,119.200 145.419,119.200 146.176 C 119.200 146.933,119.020 147.664,118.800 147.800 C 118.580 147.936,118.400 148.577,118.400 149.224 C 118.400 149.871,118.220 150.400,118.000 150.400 C 117.780 150.400,117.600 150.940,117.600 151.600 C 117.600 152.260,117.420 152.800,117.200 152.800 C 116.980 152.800,116.800 153.160,116.800 153.600 C 116.800 154.040,116.620 154.400,116.400 154.400 C 116.180 154.400,116.000 154.940,116.000 155.600 C 116.000 156.260,115.820 156.800,115.600 156.800 C 115.380 156.800,115.200 157.430,115.200 158.200 C 115.200 158.970,115.020 159.600,114.800 159.600 C 114.580 159.600,114.400 160.320,114.400 161.200 C 114.400 162.080,114.220 162.800,114.000 162.800 C 113.780 162.800,113.600 163.340,113.600 164.000 C 113.600 164.660,113.420 165.200,113.200 165.200 C 112.980 165.200,112.800 164.660,112.800 164.000 C 112.800 163.340,112.980 162.800,113.200 162.800 C 113.420 162.800,113.600 161.900,113.600 160.800 C 113.600 159.700,113.780 158.800,114.000 158.800 C 114.220 158.800,114.400 158.170,114.400 157.400 C 114.400 156.630,114.580 156.000,114.800 156.000 C 115.022 156.000,115.200 154.933,115.200 153.600 C 115.200 152.267,115.378 151.200,115.600 151.200 C 115.822 151.200,116.000 150.133,116.000 148.800 C 116.000 147.467,116.178 146.400,116.400 146.400 C 116.622 146.400,116.800 145.333,116.800 144.000 C 116.800 142.667,116.978 141.600,117.200 141.600 C 117.420 141.600,117.600 140.981,117.600 140.224 C 117.600 139.467,117.780 138.736,118.000 138.600 C 118.220 138.464,118.400 137.553,118.400 136.576 C 118.400 135.599,118.580 134.800,118.800 134.800 C 119.020 134.800,119.200 133.900,119.200 132.800 C 119.200 131.700,119.380 130.800,119.600 130.800 C 119.822 130.800,120.000 129.733,120.000 128.400 C 120.000 127.067,120.178 126.000,120.400 126.000 C 120.620 126.000,120.800 125.111,120.800 124.024 C 120.800 122.937,120.980 121.936,121.200 121.800 C 121.420 121.664,121.600 120.854,121.600 120.000 C 121.600 119.146,121.780 118.336,122.000 118.200 C 122.220 118.064,122.400 117.344,122.400 116.600 C 122.400 115.856,122.580 115.136,122.800 115.000 C 123.020 114.864,123.200 113.964,123.200 113.000 C 123.200 112.036,123.380 111.136,123.600 111.000 C 123.820 110.864,124.000 109.874,124.000 108.800 C 124.000 107.726,124.158 106.749,124.352 106.630 C 124.546 106.510,124.832 104.879,124.988 103.006 C 125.144 101.133,125.436 99.600,125.636 99.600 C 125.836 99.600,126.000 98.880,126.000 98.000 C 126.000 97.120,126.180 96.400,126.400 96.400 C 126.622 96.400,126.800 95.333,126.800 94.000 C 126.800 92.667,126.978 91.600,127.200 91.600 C 127.420 91.600,127.600 90.610,127.600 89.400 C 127.600 88.190,127.780 87.200,128.000 87.200 C 128.220 87.200,128.400 86.300,128.400 85.200 C 128.400 84.100,128.580 83.200,128.800 83.200 C 129.020 83.200,129.200 82.491,129.200 81.624 C 129.200 80.757,129.380 79.936,129.600 79.800 C 129.820 79.664,130.000 78.753,130.000 77.776 C 130.000 76.799,130.180 76.000,130.400 76.000 C 130.620 76.000,130.800 75.111,130.800 74.024 C 130.800 72.937,130.980 71.936,131.200 71.800 C 131.420 71.664,131.600 70.674,131.600 69.600 C 131.600 68.526,131.780 67.536,132.000 67.400 C 132.220 67.264,132.400 65.644,132.400 63.800 C 132.400 61.956,132.580 60.336,132.800 60.200 C 133.029 60.059,133.200 58.004,133.200 55.400 C 133.200 52.796,133.029 50.741,132.800 50.600 C 132.580 50.464,132.400 49.204,132.400 47.800 C 132.400 46.396,132.220 45.136,132.000 45.000 C 131.780 44.864,131.600 44.144,131.600 43.400 C 131.600 42.656,131.420 41.936,131.200 41.800 C 130.980 41.664,130.800 41.113,130.800 40.576 C 130.800 40.039,130.620 39.600,130.400 39.600 C 130.180 39.600,130.000 39.316,130.000 38.969 C 130.000 38.091,124.874 33.200,123.954 33.200 C 123.539 33.200,123.200 33.020,123.200 32.800 C 123.200 32.560,121.600 32.400,119.200 32.400 C 116.800 32.400,115.200 32.560,115.200 32.800 C 115.200 33.020,114.755 33.200,114.212 33.200 C 113.132 33.200,110.678 34.437,109.374 35.639 C 108.920 36.058,108.404 36.400,108.228 36.400 C 107.767 36.400,105.200 39.274,105.200 39.790 C 105.200 40.028,104.840 40.483,104.400 40.800 C 103.960 41.117,103.600 41.607,103.600 41.888 C 103.600 42.170,103.420 42.400,103.200 42.400 C 102.980 42.400,102.800 42.760,102.800 43.200 C 102.800 43.640,102.620 44.000,102.400 44.000 C 102.180 44.000,102.000 44.278,102.000 44.617 C 102.000 44.956,101.640 45.620,101.200 46.092 C 100.760 46.564,100.400 47.187,100.400 47.475 C 100.400 47.764,100.220 48.000,100.000 48.000 C 99.780 48.000,99.600 48.540,99.600 49.200 C 99.600 49.860,99.420 50.400,99.200 50.400 C 98.980 50.400,98.800 50.940,98.800 51.600 C 98.800 52.260,98.620 52.800,98.400 52.800 C 98.180 52.800,98.000 53.160,98.000 53.600 C 98.000 54.040,97.820 54.400,97.600 54.400 C 97.380 54.400,97.200 54.760,97.200 55.200 C 97.200 55.640,97.020 56.000,96.800 56.000 C 96.580 56.000,96.400 56.540,96.400 57.200 C 96.400 57.860,96.220 58.400,96.000 58.400 C 95.780 58.400,95.600 58.762,95.600 59.205 C 95.600 59.648,95.442 60.323,95.249 60.705 C 95.056 61.087,94.681 62.120,94.416 63.000 C 94.151 63.880,93.647 65.230,93.298 66.000 C 92.502 67.752,91.200 72.637,91.200 73.873 C 91.200 74.383,91.020 74.800,90.800 74.800 C 90.580 74.800,90.400 75.340,90.400 76.000 C 90.400 76.660,90.220 77.200,90.000 77.200 C 89.780 77.200,89.600 77.650,89.600 78.200 C 89.600 78.750,89.420 79.200,89.200 79.200 C 88.980 79.200,88.800 79.740,88.800 80.400 C 88.800 81.060,88.620 81.600,88.400 81.600 C 88.180 81.600,88.000 82.320,88.000 83.200 C 88.000 84.080,87.820 84.800,87.600 84.800 C 87.380 84.800,87.200 85.520,87.200 86.400 C 87.200 87.280,87.020 88.000,86.800 88.000 C 86.580 88.000,86.400 88.540,86.400 89.200 C 86.400 89.860,86.220 90.400,86.000 90.400 C 85.780 90.400,85.600 90.749,85.600 91.176 C 85.600 91.603,85.420 92.064,85.200 92.200 C 84.980 92.336,84.800 92.977,84.800 93.624 C 84.800 94.271,84.620 94.800,84.400 94.800 C 84.180 94.800,84.000 95.520,84.000 96.400 C 84.000 97.280,83.820 98.000,83.600 98.000 C 83.380 98.000,83.200 98.720,83.200 99.600 C 83.200 100.480,83.020 101.200,82.800 101.200 C 82.580 101.200,82.400 101.740,82.400 102.400 C 82.400 103.060,82.264 103.600,82.097 103.600 C 81.731 103.600,80.800 106.467,80.800 107.594 C 80.800 108.037,80.620 108.400,80.400 108.400 C 80.180 108.400,80.000 109.210,80.000 110.200 C 80.000 111.190,79.820 112.000,79.600 112.000 C 79.380 112.000,79.200 112.720,79.200 113.600 C 79.200 114.480,79.020 115.200,78.800 115.200 C 78.580 115.200,78.400 115.729,78.400 116.376 C 78.400 117.023,78.220 117.664,78.000 117.800 C 77.780 117.936,77.600 118.487,77.600 119.024 C 77.600 119.561,77.420 120.000,77.200 120.000 C 76.980 120.000,76.800 120.684,76.800 121.520 C 76.800 122.356,76.637 123.211,76.439 123.420 C 76.240 123.629,75.978 124.610,75.855 125.600 C 75.190 130.990,74.648 134.000,74.343 134.000 C 74.154 134.000,74.000 134.720,74.000 135.600 C 74.000 136.480,73.820 137.200,73.600 137.200 C 73.378 137.200,73.200 138.267,73.200 139.600 C 73.200 140.933,73.022 142.000,72.800 142.000 C 72.578 142.000,72.400 143.067,72.400 144.400 C 72.400 145.733,72.222 146.800,72.000 146.800 C 71.774 146.800,71.600 147.933,71.600 149.400 C 71.600 150.867,71.426 152.000,71.200 152.000 C 70.980 152.000,70.800 152.720,70.800 153.600 C 70.800 154.480,70.620 155.200,70.400 155.200 C 70.180 155.200,70.000 156.100,70.000 157.200 C 70.000 158.300,69.820 159.200,69.600 159.200 C 69.375 159.200,69.200 160.325,69.200 161.776 C 69.200 163.193,69.020 164.464,68.800 164.600 C 68.580 164.736,68.400 166.187,68.400 167.824 C 68.400 169.541,68.231 170.800,68.000 170.800 C 67.771 170.800,67.600 172.000,67.600 173.600 C 67.600 175.200,67.429 176.400,67.200 176.400 C 66.980 176.400,66.800 177.120,66.800 178.000 C 66.800 178.880,66.620 179.600,66.400 179.600 C 66.169 179.600,66.000 180.867,66.000 182.600 C 66.000 184.333,65.831 185.600,65.600 185.600 C 65.336 185.600,65.200 170.275,65.200 140.424 C 65.200 110.737,65.063 95.162,64.800 95.000 C 64.580 94.864,64.400 93.953,64.400 92.976 C 64.400 91.999,64.220 91.200,64.000 91.200 C 63.780 91.200,63.600 90.660,63.600 90.000 C 63.600 89.340,63.420 88.800,63.200 88.800 C 62.980 88.800,62.800 88.440,62.800 88.000 C 62.800 87.560,62.620 87.200,62.400 87.200 C 62.180 87.200,62.000 86.840,62.000 86.400 C 62.000 85.960,61.859 85.600,61.686 85.600 C 61.514 85.600,61.054 85.060,60.664 84.400 C 60.274 83.740,59.707 83.200,59.404 83.200 C 59.102 83.200,58.740 82.840,58.600 82.400 C 58.440 81.896,57.995 81.600,57.397 81.600 C 56.874 81.600,56.336 81.420,56.200 81.200 C 56.064 80.980,55.331 80.800,54.571 80.800 C 53.811 80.800,52.848 80.587,52.430 80.326 C 51.845 79.961,51.308 79.961,50.089 80.326 C 49.219 80.587,47.954 80.800,47.277 80.800 C 46.601 80.800,45.936 80.980,45.800 81.200 C 45.664 81.420,45.203 81.600,44.776 81.600 C 44.349 81.600,44.000 81.780,44.000 82.000 C 44.000 82.220,43.658 82.400,43.241 82.400 C 42.375 82.400,36.400 88.064,36.400 88.884 C 36.400 89.181,36.040 89.683,35.600 90.000 C 35.160 90.317,34.800 90.897,34.800 91.288 C 34.800 91.680,34.620 92.000,34.400 92.000 C 34.180 92.000,34.000 92.360,34.000 92.800 C 34.000 93.240,33.820 93.600,33.600 93.600 C 33.380 93.600,33.200 94.050,33.200 94.600 C 33.200 95.150,33.020 95.600,32.800 95.600 C 32.580 95.600,32.400 96.039,32.400 96.576 C 32.400 97.113,32.220 97.664,32.000 97.800 C 31.780 97.936,31.600 98.397,31.600 98.824 C 31.600 99.251,31.420 99.600,31.200 99.600 C 30.980 99.600,30.800 100.320,30.800 101.200 C 30.800 102.080,30.620 102.800,30.400 102.800 C 30.180 102.800,30.000 103.779,30.000 104.976 C 30.000 106.173,29.820 107.264,29.600 107.400 C 29.380 107.536,29.200 108.591,29.200 109.744 C 29.200 110.897,29.035 112.011,28.834 112.220 C 28.632 112.429,28.374 113.680,28.260 115.000 C 28.146 116.320,27.845 118.480,27.590 119.800 C 27.336 121.120,27.049 123.820,26.953 125.800 C 26.856 127.780,26.609 129.760,26.402 130.200 C 26.196 130.640,25.935 133.250,25.824 136.000 C 24.988 156.602,24.559 164.778,24.300 165.035 C 23.881 165.452,23.922 223.105,24.341 223.364 C 24.529 223.480,24.812 227.961,24.969 233.322 C 25.127 238.683,25.346 243.594,25.457 244.235 C 25.567 244.876,25.751 247.470,25.866 250.000 C 25.981 252.530,26.238 254.771,26.438 254.980 C 26.637 255.189,26.800 256.818,26.800 258.600 C 26.800 260.382,26.970 262.011,27.177 262.220 C 27.385 262.429,27.597 263.555,27.650 264.721 C 27.702 265.888,27.892 266.933,28.072 267.045 C 28.253 267.156,28.400 268.126,28.400 269.200 C 28.400 270.274,28.580 271.264,28.800 271.400 C 29.020 271.536,29.200 272.807,29.200 274.224 C 29.200 275.675,29.375 276.800,29.600 276.800 C 29.829 276.800,30.000 278.000,30.000 279.600 C 30.000 281.200,30.171 282.400,30.400 282.400 C 30.620 282.400,30.800 283.300,30.800 284.400 C 30.800 285.500,30.980 286.400,31.200 286.400 C 31.420 286.400,31.600 287.019,31.600 287.776 C 31.600 288.533,31.780 289.264,32.000 289.400 C 32.220 289.536,32.400 290.267,32.400 291.024 C 32.400 291.781,32.580 292.400,32.800 292.400 C 33.020 292.400,33.200 293.300,33.200 294.400 C 33.200 295.500,33.380 296.400,33.600 296.400 C 33.820 296.400,34.000 297.300,34.000 298.400 C 34.000 299.500,34.180 300.400,34.400 300.400 C 34.620 300.400,34.800 301.120,34.800 302.000 C 34.800 302.880,34.980 303.600,35.200 303.600 C 35.420 303.600,35.600 304.050,35.600 304.600 C 35.600 305.150,35.780 305.600,36.000 305.600 C 36.220 305.600,36.400 306.129,36.400 306.776 C 36.400 307.423,36.580 308.064,36.800 308.200 C 37.020 308.336,37.200 309.067,37.200 309.824 C 37.200 310.581,37.380 311.200,37.600 311.200 C 37.820 311.200,38.000 311.740,38.000 312.400 C 38.000 313.060,38.180 313.600,38.400 313.600 C 38.620 313.600,38.800 314.320,38.800 315.200 C 38.800 316.080,38.980 316.800,39.200 316.800 C 39.420 316.800,39.600 317.160,39.600 317.600 C 39.600 318.040,39.780 318.400,40.000 318.400 C 40.220 318.400,40.400 318.850,40.400 319.400 C 40.400 319.950,40.580 320.400,40.800 320.400 C 41.020 320.400,41.200 320.850,41.200 321.400 C 41.200 321.950,41.391 322.400,41.624 322.400 C 41.857 322.400,41.930 322.590,41.786 322.822 C 41.475 323.325,42.437 326.800,42.887 326.800 C 43.059 326.800,43.200 327.160,43.200 327.600 C 43.200 328.040,43.380 328.400,43.600 328.400 C 43.820 328.400,44.000 328.760,44.000 329.200 C 44.000 329.640,44.180 330.000,44.400 330.000 C 44.620 330.000,44.800 330.540,44.800 331.200 C 44.800 331.860,44.941 332.400,45.113 332.400 C 45.285 332.400,45.677 333.252,45.985 334.294 C 46.292 335.335,46.871 336.539,47.272 336.969 C 47.672 337.399,48.000 337.987,48.000 338.275 C 48.000 338.564,48.180 338.800,48.400 338.800 C 48.620 338.800,48.800 339.124,48.800 339.520 C 48.800 340.414,49.694 342.393,50.100 342.397 C 50.265 342.399,50.400 342.720,50.400 343.112 C 50.400 343.503,50.760 344.083,51.200 344.400 C 51.640 344.717,52.000 345.297,52.000 345.688 C 52.000 346.080,52.180 346.400,52.400 346.400 C 52.620 346.400,52.800 346.760,52.800 347.200 C 52.800 347.640,52.980 348.000,53.200 348.000 C 53.420 348.000,53.600 348.320,53.600 348.712 C 53.600 349.103,53.960 349.683,54.400 350.000 C 54.840 350.317,55.200 350.857,55.200 351.200 C 55.200 351.543,55.560 352.083,56.000 352.400 C 56.440 352.717,56.800 353.257,56.800 353.600 C 56.800 353.943,57.160 354.483,57.600 354.800 C 58.040 355.117,58.400 355.665,58.400 356.019 C 58.400 356.372,58.850 357.083,59.400 357.600 C 59.950 358.117,60.400 358.693,60.400 358.880 C 60.400 359.068,61.210 360.031,62.200 361.021 C 63.190 362.011,64.000 362.995,64.000 363.207 C 64.000 363.743,75.505 375.200,76.043 375.200 C 76.283 375.200,76.983 375.740,77.600 376.400 C 78.217 377.060,78.969 377.600,79.272 377.600 C 79.575 377.600,80.083 377.960,80.400 378.400 C 80.717 378.840,81.257 379.200,81.600 379.200 C 81.943 379.200,82.483 379.560,82.800 380.000 C 83.117 380.440,83.657 380.800,84.000 380.800 C 84.343 380.800,84.883 381.160,85.200 381.600 C 85.517 382.040,86.097 382.400,86.488 382.400 C 86.880 382.400,87.200 382.580,87.200 382.800 C 87.200 383.020,87.560 383.200,88.000 383.200 C 88.440 383.200,88.800 383.380,88.800 383.600 C 88.800 383.820,89.160 384.000,89.600 384.000 C 90.040 384.000,90.400 384.180,90.400 384.400 C 90.400 384.620,90.760 384.800,91.200 384.800 C 91.640 384.800,92.000 384.946,92.000 385.125 C 92.000 385.304,92.630 385.698,93.400 386.000 C 94.170 386.302,94.800 386.696,94.800 386.875 C 94.800 387.054,95.340 387.200,96.000 387.200 C 96.660 387.200,97.200 387.380,97.200 387.600 C 97.200 387.820,97.740 388.000,98.400 388.000 C 99.060 388.000,99.600 388.160,99.600 388.356 C 99.600 388.552,100.185 388.809,100.900 388.927 C 101.615 389.046,102.920 389.327,103.800 389.553 C 108.121 390.662,109.248 390.886,112.400 391.265 C 118.660 392.018,132.604 391.130,133.834 389.900 C 133.998 389.735,134.723 389.600,135.443 389.600 C 136.163 389.600,136.864 389.420,137.000 389.200 C 137.136 388.980,137.777 388.800,138.424 388.800 C 139.071 388.800,139.600 388.620,139.600 388.400 C 139.600 388.180,140.129 388.000,140.776 388.000 C 141.423 388.000,142.064 387.820,142.200 387.600 C 142.336 387.380,142.797 387.200,143.224 387.200 C 143.651 387.200,144.000 387.020,144.000 386.800 C 144.000 386.580,144.360 386.400,144.800 386.400 C 145.240 386.400,145.600 386.220,145.600 386.000 C 145.600 385.780,145.960 385.600,146.400 385.600 C 146.840 385.600,147.200 385.420,147.200 385.200 C 147.200 384.980,147.560 384.800,148.000 384.800 C 148.440 384.800,148.800 384.620,148.800 384.400 C 148.800 384.180,149.216 384.000,149.725 384.000 C 150.233 384.000,151.036 383.640,151.508 383.200 C 151.980 382.760,152.604 382.400,152.895 382.400 C 153.186 382.400,153.683 382.040,154.000 381.600 C 154.317 381.160,154.897 380.800,155.288 380.800 C 155.680 380.800,156.000 380.620,156.000 380.400 C 156.000 380.180,156.320 380.000,156.712 380.000 C 157.103 380.000,157.683 379.640,158.000 379.200 C 158.317 378.760,158.719 378.400,158.892 378.400 C 159.065 378.400,159.772 377.860,160.463 377.200 C 161.154 376.540,161.962 376.000,162.259 376.000 C 162.557 376.000,162.800 375.842,162.800 375.649 C 162.800 375.455,163.314 375.084,163.943 374.824 C 164.572 374.563,165.742 373.731,166.544 372.975 C 167.346 372.219,168.185 371.600,168.410 371.600 C 168.961 371.600,173.200 367.331,173.200 366.776 C 173.200 366.533,174.685 364.766,176.500 362.850 C 179.870 359.292,184.121 354.577,187.183 351.000 C 188.125 349.900,189.729 348.100,190.749 347.000 C 191.768 345.900,193.256 344.190,194.056 343.200 C 194.856 342.210,195.912 340.950,196.403 340.400 C 196.893 339.850,199.019 337.330,201.126 334.800 C 203.234 332.270,205.688 329.385,206.579 328.390 C 207.471 327.394,208.650 326.030,209.200 325.358 C 209.750 324.687,213.800 319.862,218.200 314.637 C 222.600 309.411,227.010 304.164,228.000 302.977 C 231.959 298.228,237.878 291.079,239.200 289.450 C 239.970 288.501,243.450 284.321,246.934 280.162 C 255.063 270.457,256.460 268.801,256.986 268.251 C 257.223 268.003,257.833 267.260,258.341 266.600 C 258.850 265.940,259.930 264.680,260.742 263.800 C 261.554 262.920,262.664 261.637,263.209 260.950 C 265.997 257.433,271.371 251.323,278.583 243.473 C 282.992 238.673,286.870 234.303,287.200 233.760 C 287.530 233.218,288.182 232.676,288.649 232.556 C 289.116 232.437,289.746 231.858,290.049 231.270 C 290.352 230.681,290.780 229.981,291.000 229.714 C 291.220 229.447,291.625 228.959,291.900 228.631 C 292.175 228.302,292.400 227.796,292.400 227.505 C 292.400 227.214,292.760 226.717,293.200 226.400 C 293.640 226.083,294.000 225.676,294.000 225.495 C 294.000 225.314,294.360 224.780,294.800 224.308 C 295.240 223.836,295.600 223.213,295.600 222.925 C 295.600 222.636,295.780 222.400,296.000 222.400 C 296.220 222.400,296.400 222.040,296.400 221.600 C 296.400 221.160,296.580 220.800,296.800 220.800 C 297.020 220.800,297.200 220.080,297.200 219.200 C 297.200 218.320,297.380 217.600,297.600 217.600 C 297.820 217.600,298.000 216.621,298.000 215.424 C 298.000 214.227,298.180 213.136,298.400 213.000 C 298.620 212.864,298.800 212.313,298.800 211.776 C 298.800 211.239,298.620 210.800,298.400 210.800 C 298.171 210.800,298.000 209.600,298.000 208.000 C 298.000 206.460,297.849 205.200,297.664 205.200 C 297.479 205.200,296.858 204.339,296.285 203.286 C 294.769 200.500,290.840 196.755,287.909 195.301 C 276.780 189.781,264.581 194.151,244.973 210.679 C 242.415 212.836,239.569 215.230,238.648 216.000 C 232.069 221.502,222.384 229.963,219.200 232.990 C 203.315 248.094,197.953 249.842,195.585 240.690 C 194.489 236.457,196.006 226.480,199.795 213.000 C 200.166 211.680,200.621 210.060,200.807 209.400 C 203.814 198.709,209.999 179.775,211.225 177.505 C 211.431 177.123,211.600 176.591,211.600 176.322 C 211.600 175.903,214.204 168.569,215.194 166.200 C 215.378 165.760,216.920 161.845,218.620 157.500 C 220.321 153.155,221.867 149.600,222.056 149.600 C 222.245 149.600,222.400 149.060,222.400 148.400 C 222.400 147.740,222.580 147.200,222.800 147.200 C 223.020 147.200,223.200 146.660,223.200 146.000 C 223.200 145.340,223.380 144.800,223.600 144.800 C 223.820 144.800,224.000 144.260,224.000 143.600 C 224.000 142.940,224.163 142.400,224.362 142.400 C 224.562 142.400,224.849 141.500,225.000 140.400 C 225.151 139.301,225.438 138.300,225.637 138.177 C 225.837 138.054,226.000 137.603,226.000 137.176 C 226.000 136.749,226.180 136.400,226.400 136.400 C 226.620 136.400,226.800 135.860,226.800 135.200 C 226.800 134.540,226.980 134.000,227.200 134.000 C 227.420 134.000,227.600 133.460,227.600 132.800 C 227.600 132.140,227.780 131.600,228.000 131.600 C 228.220 131.600,228.400 131.060,228.400 130.400 C 228.400 129.740,228.580 129.200,228.800 129.200 C 229.020 129.200,229.200 128.761,229.200 128.224 C 229.200 127.687,229.380 127.136,229.600 127.000 C 229.820 126.864,230.000 126.403,230.000 125.976 C 230.000 125.549,230.180 125.200,230.400 125.200 C 230.620 125.200,230.800 124.750,230.800 124.200 C 230.800 123.650,230.980 123.200,231.200 123.200 C 231.420 123.200,231.600 122.480,231.600 121.600 C 231.600 120.720,231.780 120.000,232.000 120.000 C 232.220 120.000,232.400 119.460,232.400 118.800 C 232.400 118.140,232.580 117.600,232.800 117.600 C 233.020 117.600,233.200 117.240,233.200 116.800 C 233.200 116.360,233.380 116.000,233.600 116.000 C 233.820 116.000,234.000 115.561,234.000 115.024 C 234.000 114.487,234.180 113.936,234.400 113.800 C 234.620 113.664,234.800 113.203,234.800 112.776 C 234.800 112.349,234.980 112.000,235.200 112.000 C 235.420 112.000,235.600 111.548,235.600 110.995 C 235.600 110.442,235.757 109.677,235.950 109.295 C 237.514 106.189,238.000 105.021,238.000 104.362 C 238.000 103.943,238.180 103.600,238.400 103.600 C 238.620 103.600,238.800 103.060,238.800 102.400 C 238.800 101.740,238.980 101.200,239.200 101.200 C 239.420 101.200,239.600 100.660,239.600 100.000 C 239.600 99.340,239.780 98.800,240.000 98.800 C 240.220 98.800,240.400 98.260,240.400 97.600 C 240.400 96.940,240.574 96.400,240.786 96.400 C 240.999 96.400,241.292 95.500,241.438 94.400 C 241.584 93.300,241.860 92.400,242.052 92.400 C 242.243 92.400,242.400 91.950,242.400 91.400 C 242.400 90.850,242.580 90.400,242.800 90.400 C 243.020 90.400,243.200 89.860,243.200 89.200 C 243.200 88.540,243.380 88.000,243.600 88.000 C 243.820 88.000,244.000 87.460,244.000 86.800 C 244.000 86.140,244.180 85.600,244.400 85.600 C 244.620 85.600,244.800 85.240,244.800 84.800 C 244.800 84.360,244.980 84.000,245.200 84.000 C 245.420 84.000,245.600 83.460,245.600 82.800 C 245.600 82.140,245.780 81.600,246.000 81.600 C 246.220 81.600,246.400 81.071,246.400 80.424 C 246.400 79.777,246.580 79.136,246.800 79.000 C 247.020 78.864,247.200 78.133,247.200 77.376 C 247.200 76.619,247.380 76.000,247.600 76.000 C 247.820 76.000,248.000 75.676,248.000 75.280 C 248.000 74.386,248.894 72.407,249.300 72.403 C 249.465 72.401,249.600 71.680,249.600 70.800 C 249.600 69.920,249.780 69.200,250.000 69.200 C 250.220 69.200,250.400 68.581,250.400 67.824 C 250.400 67.067,250.580 66.336,250.800 66.200 C 251.020 66.064,251.200 65.063,251.200 63.976 C 251.200 62.838,251.382 62.000,251.628 62.000 C 251.916 62.000,251.990 60.848,251.853 58.500 C 251.578 53.773,251.193 51.200,250.760 51.200 C 250.562 51.200,250.400 50.746,250.400 50.191 C 250.400 49.060,246.456 44.800,245.409 44.800 C 245.074 44.800,244.800 44.620,244.800 44.400 C 244.800 44.180,244.260 44.000,243.600 44.000 C 242.940 44.000,242.400 43.820,242.400 43.600 C 242.400 43.073,236.126 43.073,235.800 43.600 C 235.664 43.820,235.023 44.000,234.376 44.000 C 233.729 44.000,233.200 44.180,233.200 44.400 C 233.200 44.620,232.660 44.800,232.000 44.800 C 231.340 44.800,230.800 44.980,230.800 45.200 C 230.800 45.420,230.528 45.600,230.196 45.600 C 229.864 45.600,229.028 46.140,228.337 46.800 C 227.646 47.460,226.904 48.000,226.688 48.000 C 226.230 48.000,224.800 49.562,224.800 50.061 C 224.800 50.248,224.524 50.400,224.187 50.400 C 223.851 50.400,223.461 50.697,223.322 51.060 C 223.182 51.423,221.298 53.487,219.134 55.646 C 216.970 57.805,215.200 59.686,215.200 59.826 C 215.200 59.965,214.660 60.583,214.000 61.200 C 213.340 61.817,212.800 62.492,212.800 62.701 C 212.800 62.910,212.260 63.646,211.600 64.337 C 210.940 65.028,210.400 65.864,210.400 66.196 C 210.400 66.528,210.247 66.800,210.061 66.800 C 209.874 66.800,209.397 67.520,209.000 68.400 C 208.603 69.280,208.126 70.000,207.939 70.000 C 207.753 70.000,207.600 70.360,207.600 70.800 C 207.600 71.240,207.420 71.600,207.200 71.600 C 206.980 71.600,206.800 71.960,206.800 72.400 C 206.800 72.840,206.620 73.200,206.400 73.200 C 206.180 73.200,206.000 73.442,206.000 73.738 C 206.000 74.034,205.640 74.602,205.200 75.000 C 204.760 75.398,204.400 75.966,204.400 76.262 C 204.400 76.558,204.220 76.800,204.000 76.800 C 203.780 76.800,203.600 77.160,203.600 77.600 C 203.600 78.040,203.441 78.400,203.247 78.400 C 203.052 78.400,202.793 78.715,202.671 79.100 C 202.375 80.036,201.076 82.166,200.700 82.333 C 200.535 82.407,200.400 82.812,200.400 83.233 C 200.400 83.655,200.220 84.000,200.000 84.000 C 199.780 84.000,199.600 84.360,199.600 84.800 C 199.600 85.240,199.420 85.600,199.200 85.600 C 198.980 85.600,198.800 85.960,198.800 86.400 C 198.800 86.840,198.620 87.200,198.400 87.200 C 198.180 87.200,198.000 87.560,198.000 88.000 C 198.000 88.440,197.842 88.800,197.649 88.800 C 197.455 88.800,197.073 89.340,196.800 90.000 C 196.527 90.660,196.145 91.200,195.951 91.200 C 195.758 91.200,195.600 91.650,195.600 92.200 C 195.600 92.750,195.420 93.200,195.200 93.200 C 194.980 93.200,194.800 93.560,194.800 94.000 C 194.800 94.440,194.620 94.800,194.400 94.800 C 194.180 94.800,194.000 95.160,194.000 95.600 C 194.000 96.040,193.842 96.400,193.649 96.400 C 193.232 96.400,191.683 99.886,191.341 101.595 C 191.208 102.258,190.942 102.800,190.750 102.800 C 190.558 102.800,190.400 103.160,190.400 103.600 C 190.400 104.040,190.220 104.400,190.000 104.400 C 189.780 104.400,189.600 104.760,189.600 105.200 C 189.600 105.640,189.420 106.000,189.200 106.000 C 188.980 106.000,188.800 106.360,188.800 106.800 C 188.800 107.240,188.620 107.600,188.400 107.600 C 188.180 107.600,188.000 107.870,188.000 108.200 C 188.000 108.530,187.820 108.800,187.600 108.800 C 187.380 108.800,187.200 109.124,187.200 109.520 C 187.200 110.414,186.306 112.393,185.900 112.397 C 185.735 112.399,185.600 112.670,185.600 113.000 C 185.600 113.330,185.420 113.600,185.200 113.600 C 184.980 113.600,184.800 113.960,184.800 114.400 C 184.800 114.840,184.620 115.200,184.400 115.200 C 184.180 115.200,184.000 115.740,184.000 116.400 C 184.000 117.060,183.820 117.600,183.600 117.600 C 183.380 117.600,183.200 117.960,183.200 118.400 C 183.200 118.840,183.020 119.200,182.800 119.200 C 182.580 119.200,182.400 119.560,182.400 120.000 C 182.400 120.440,182.220 120.800,182.000 120.800 C 181.780 120.800,181.600 121.160,181.600 121.600 C 181.600 122.040,181.420 122.400,181.200 122.400 C 180.980 122.400,180.800 122.760,180.800 123.200 C 180.800 123.640,180.620 124.000,180.400 124.000 C 180.180 124.000,180.000 124.450,180.000 125.000 C 180.000 125.550,179.820 126.000,179.600 126.000 C 179.380 126.000,179.200 126.360,179.200 126.800 C 179.200 127.240,179.020 127.600,178.800 127.600 C 178.580 127.600,178.400 127.960,178.400 128.400 C 178.400 128.840,178.220 129.200,178.000 129.200 C 177.780 129.200,177.600 129.560,177.600 130.000 C 177.600 130.440,177.420 130.800,177.200 130.800 C 176.980 130.800,176.800 131.160,176.800 131.600 C 176.800 132.040,176.660 132.400,176.489 132.400 C 176.181 132.400,174.800 136.588,174.800 137.520 C 174.800 137.784,174.665 138.001,174.500 138.003 C 174.141 138.007,173.200 139.944,173.200 140.680 C 173.200 140.966,173.065 141.201,172.900 141.203 C 172.494 141.207,171.600 143.186,171.600 144.080 C 171.600 144.476,171.453 144.800,171.274 144.800 C 170.808 144.800,169.200 147.931,169.200 148.838 C 169.200 149.257,169.020 149.600,168.800 149.600 C 168.580 149.600,168.400 149.960,168.400 150.400 C 168.400 150.840,168.220 151.200,168.000 151.200 C 167.780 151.200,167.600 151.700,167.600 152.312 C 167.600 152.965,167.270 153.661,166.800 154.000 C 166.360 154.317,166.000 154.897,166.000 155.288 C 166.000 155.680,165.820 156.000,165.600 156.000 C 165.380 156.000,165.200 155.640,165.200 155.200 C 165.200 154.760,165.380 154.400,165.600 154.400 C 165.820 154.400,166.000 153.860,166.000 153.200 C 166.000 152.540,166.180 152.000,166.400 152.000 C 166.620 152.000,166.800 151.381,166.800 150.624 C 166.800 149.867,166.980 149.136,167.200 149.000 C 167.420 148.864,167.600 148.403,167.600 147.976 C 167.600 147.549,167.780 147.200,168.000 147.200 C 168.220 147.200,168.400 146.660,168.400 146.000 C 168.400 145.340,168.580 144.800,168.800 144.800 C 169.020 144.800,169.200 144.260,169.200 143.600 C 169.200 142.940,169.380 142.400,169.600 142.400 C 169.820 142.400,170.000 141.770,170.000 141.000 C 170.000 140.230,170.180 139.600,170.400 139.600 C 170.620 139.600,170.800 139.060,170.800 138.400 C 170.800 137.740,170.980 137.200,171.200 137.200 C 171.420 137.200,171.600 136.660,171.600 136.000 C 171.600 135.340,171.780 134.800,172.000 134.800 C 172.220 134.800,172.400 134.451,172.400 134.024 C 172.400 133.597,172.580 133.136,172.800 133.000 C 173.020 132.864,173.200 132.133,173.200 131.376 C 173.200 130.619,173.380 130.000,173.600 130.000 C 173.820 130.000,174.000 129.471,174.000 128.824 C 174.000 128.177,174.163 127.546,174.363 127.423 C 174.562 127.300,174.849 126.299,175.000 125.200 C 175.151 124.100,175.438 123.200,175.638 123.200 C 175.837 123.200,176.000 122.840,176.000 122.400 C 176.000 121.960,176.180 121.600,176.400 121.600 C 176.620 121.600,176.800 120.880,176.800 120.000 C 176.800 119.120,176.980 118.400,177.200 118.400 C 177.420 118.400,177.600 117.860,177.600 117.200 C 177.600 116.540,177.780 116.000,178.000 116.000 C 178.220 116.000,178.400 115.460,178.400 114.800 C 178.400 114.140,178.580 113.600,178.800 113.600 C 179.020 113.600,179.200 113.060,179.200 112.400 C 179.200 111.740,179.380 111.200,179.600 111.200 C 179.820 111.200,180.000 110.840,180.000 110.400 C 180.000 109.960,180.180 109.600,180.400 109.600 C 180.620 109.600,180.800 109.060,180.800 108.400 C 180.800 107.740,180.980 107.200,181.200 107.200 C 181.420 107.200,181.600 106.570,181.600 105.800 C 181.600 105.030,181.780 104.400,182.000 104.400 C 182.220 104.400,182.400 103.860,182.400 103.200 C 182.400 102.540,182.580 102.000,182.800 102.000 C 183.020 102.000,183.200 101.640,183.200 101.200 C 183.200 100.760,183.380 100.400,183.600 100.400 C 183.820 100.400,184.000 99.860,184.000 99.200 C 184.000 98.540,184.180 98.000,184.400 98.000 C 184.620 98.000,184.800 97.460,184.800 96.800 C 184.800 96.140,184.980 95.600,185.200 95.600 C 185.420 95.600,185.600 94.880,185.600 94.000 C 185.600 93.120,185.780 92.400,186.000 92.400 C 186.220 92.400,186.400 92.045,186.400 91.612 C 186.400 91.179,186.760 90.183,187.200 89.400 C 187.640 88.617,188.000 87.621,188.000 87.188 C 188.000 86.755,188.180 86.400,188.400 86.400 C 188.620 86.400,188.800 85.948,188.800 85.395 C 188.800 84.842,188.959 84.077,189.153 83.695 C 189.778 82.463,191.277 77.839,191.485 76.500 C 191.597 75.785,191.848 75.200,192.044 75.200 C 192.240 75.200,192.400 74.750,192.400 74.200 C 192.400 73.650,192.580 73.200,192.800 73.200 C 193.020 73.200,193.200 72.660,193.200 72.000 C 193.200 71.340,193.380 70.800,193.600 70.800 C 193.820 70.800,194.000 70.260,194.000 69.600 C 194.000 68.940,194.180 68.400,194.400 68.400 C 194.620 68.400,194.800 68.040,194.800 67.600 C 194.800 67.160,194.980 66.800,195.200 66.800 C 195.420 66.800,195.600 66.260,195.600 65.600 C 195.600 64.940,195.780 64.400,196.000 64.400 C 196.220 64.400,196.400 63.871,196.400 63.224 C 196.400 62.577,196.580 61.936,196.800 61.800 C 197.020 61.664,197.200 60.933,197.200 60.176 C 197.200 59.419,197.380 58.800,197.600 58.800 C 197.820 58.800,198.000 58.445,198.000 58.012 C 198.000 57.579,198.360 56.583,198.800 55.800 C 199.240 55.017,199.600 53.841,199.600 53.188 C 199.600 52.535,199.780 52.000,200.000 52.000 C 200.220 52.000,200.400 51.280,200.400 50.400 C 200.400 49.520,200.580 48.800,200.800 48.800 C 201.020 48.800,201.200 48.080,201.200 47.200 C 201.200 46.320,201.380 45.600,201.600 45.600 C 201.820 45.600,202.000 44.880,202.000 44.000 C 202.000 43.120,202.180 42.400,202.400 42.400 C 202.620 42.400,202.800 42.051,202.800 41.624 C 202.800 41.197,202.980 40.736,203.200 40.600 C 203.420 40.464,203.600 39.643,203.600 38.776 C 203.600 37.909,203.765 37.200,203.966 37.200 C 204.453 37.200,204.806 33.238,205.042 25.100 C 205.173 20.581,205.100 18.400,204.818 18.400 C 204.588 18.400,204.400 17.865,204.400 17.212 C 204.400 14.041,199.499 8.856,196.177 8.513 C 194.980 8.389,194.000 8.133,194.000 7.944 C 194.000 7.755,192.830 7.600,191.400 7.600 C 189.933 7.600,188.800 7.774,188.800 8.000 M165.200 157.600 C 165.200 158.040,165.020 158.400,164.800 158.400 C 164.580 158.400,164.400 158.850,164.400 159.400 C 164.400 159.950,164.220 160.400,164.000 160.400 C 163.780 160.400,163.600 160.749,163.600 161.176 C 163.600 161.603,163.420 162.064,163.200 162.200 C 162.973 162.340,162.800 162.004,162.800 161.424 C 162.800 160.861,162.980 160.400,163.200 160.400 C 163.420 160.400,163.600 159.950,163.600 159.400 C 163.600 158.850,163.780 158.400,164.000 158.400 C 164.220 158.400,164.400 158.040,164.400 157.600 C 164.400 157.160,164.580 156.800,164.800 156.800 C 165.020 156.800,165.200 157.160,165.200 157.600 " stroke="none" fill="#e42b7b" fill-rule="evenodd"></path><path id="path2" d="M295.410 32.384 C 295.071 32.933,295.371 33.345,295.962 33.142 C 296.204 33.058,296.235 32.776,296.037 32.457 C 295.787 32.055,295.625 32.036,295.410 32.384 M316.000 46.000 C 316.000 47.600,316.171 48.800,316.400 48.800 C 316.629 48.800,316.800 47.600,316.800 46.000 C 316.800 44.400,316.629 43.200,316.400 43.200 C 316.171 43.200,316.000 44.400,316.000 46.000 M261.883 72.279 C 261.386 72.408,261.241 72.700,261.410 73.233 C 261.583 73.776,261.463 74.000,261.000 74.000 C 260.542 74.000,260.418 74.225,260.585 74.753 C 260.735 75.225,260.599 75.592,260.219 75.737 C 259.871 75.871,259.714 76.232,259.850 76.585 C 259.979 76.923,259.886 77.200,259.643 77.200 C 259.399 77.200,259.200 77.520,259.200 77.912 C 259.200 78.303,258.840 78.883,258.400 79.200 C 257.960 79.517,257.600 80.097,257.600 80.488 C 257.600 80.880,257.420 81.200,257.200 81.200 C 256.980 81.200,256.800 81.571,256.800 82.024 C 256.800 82.477,256.620 82.736,256.400 82.600 C 256.177 82.462,256.000 82.766,256.000 83.288 C 256.000 83.803,255.640 84.483,255.200 84.800 C 254.760 85.117,254.400 85.567,254.400 85.800 C 254.400 86.033,254.040 86.483,253.600 86.800 C 253.130 87.139,252.800 87.835,252.800 88.488 C 252.800 89.100,252.620 89.600,252.400 89.600 C 252.180 89.600,252.000 89.960,252.000 90.400 C 252.000 90.840,251.820 91.200,251.600 91.200 C 251.380 91.200,251.200 91.470,251.200 91.800 C 251.200 92.130,251.001 92.400,250.757 92.400 C 250.514 92.400,250.411 92.652,250.530 92.961 C 250.658 93.294,250.431 93.603,249.971 93.724 C 249.460 93.857,249.280 94.142,249.441 94.563 C 249.576 94.913,249.486 95.200,249.243 95.200 C 248.999 95.200,248.800 95.560,248.800 96.000 C 248.800 96.440,248.620 96.800,248.400 96.800 C 248.180 96.800,248.000 97.160,248.000 97.600 C 248.000 98.040,247.820 98.400,247.600 98.400 C 247.380 98.400,247.200 98.670,247.200 99.000 C 247.200 99.330,246.833 99.967,246.385 100.415 C 245.937 100.863,245.678 101.403,245.809 101.615 C 245.940 101.827,245.767 102.000,245.424 102.000 C 245.067 102.000,244.800 102.342,244.800 102.800 C 244.800 103.240,244.599 103.600,244.353 103.600 C 244.108 103.600,243.998 103.948,244.109 104.374 C 244.225 104.819,244.078 105.238,243.763 105.359 C 243.461 105.475,243.320 105.847,243.450 106.185 C 243.580 106.524,243.474 106.800,243.214 106.800 C 242.955 106.800,242.518 107.025,242.244 107.300 C 241.645 107.900,241.120 109.696,241.637 109.377 C 241.837 109.254,242.000 109.343,242.000 109.576 C 242.000 109.809,241.820 110.000,241.600 110.000 C 241.380 110.000,241.200 110.360,241.200 110.800 C 241.200 111.240,241.020 111.600,240.800 111.600 C 240.580 111.600,240.400 111.960,240.400 112.400 C 240.400 112.840,240.220 113.200,240.000 113.200 C 239.780 113.200,239.600 113.481,239.600 113.824 C 239.600 114.167,239.420 114.336,239.200 114.200 C 238.980 114.064,238.800 114.233,238.800 114.576 C 238.800 114.919,238.620 115.200,238.400 115.200 C 238.180 115.200,238.000 115.560,238.000 116.000 C 238.000 116.440,237.820 116.800,237.600 116.800 C 237.380 116.800,237.200 117.340,237.200 118.000 C 237.200 118.660,237.020 119.200,236.800 119.200 C 236.580 119.200,236.400 119.560,236.400 120.000 C 236.400 120.440,236.220 120.800,236.000 120.800 C 235.780 120.800,235.600 121.120,235.600 121.512 C 235.600 121.903,235.240 122.483,234.800 122.800 C 234.360 123.117,234.000 123.697,234.000 124.088 C 234.000 124.480,233.820 124.800,233.600 124.800 C 233.380 124.800,233.200 125.340,233.200 126.000 C 233.200 126.660,233.020 127.200,232.800 127.200 C 232.580 127.200,232.400 127.560,232.400 128.000 C 232.400 128.440,232.220 128.800,232.000 128.800 C 231.780 128.800,231.600 129.171,231.600 129.624 C 231.600 130.077,231.447 130.353,231.260 130.237 C 230.762 129.929,229.852 131.838,230.140 132.588 C 230.286 132.968,230.144 133.323,229.793 133.458 C 229.467 133.583,229.200 134.026,229.200 134.443 C 229.200 134.859,229.001 135.200,228.757 135.200 C 228.514 135.200,228.421 135.477,228.550 135.815 C 228.682 136.159,228.536 136.527,228.219 136.648 C 227.906 136.768,227.739 137.098,227.848 137.381 C 227.957 137.665,227.769 138.003,227.430 138.133 C 227.074 138.270,226.913 138.629,227.050 138.985 C 227.202 139.381,227.057 139.600,226.643 139.600 C 226.267 139.600,226.000 139.932,226.000 140.400 C 226.000 140.840,225.809 141.200,225.576 141.200 C 225.343 141.200,225.256 141.368,225.383 141.572 C 225.509 141.777,225.411 142.070,225.164 142.222 C 224.845 142.420,224.872 142.610,225.257 142.880 C 225.679 143.176,225.689 143.306,225.300 143.464 C 225.025 143.575,224.800 144.012,224.800 144.433 C 224.800 144.855,224.620 145.200,224.400 145.200 C 224.180 145.200,224.000 145.560,224.000 146.000 C 224.000 146.440,223.820 146.800,223.600 146.800 C 223.380 146.800,223.200 147.070,223.200 147.400 C 223.200 147.730,223.020 148.000,222.800 148.000 C 222.580 148.000,222.400 148.349,222.400 148.776 C 222.400 149.203,222.220 149.664,222.000 149.800 C 221.780 149.936,221.600 150.532,221.600 151.124 C 221.600 151.716,221.042 153.370,220.360 154.800 C 219.678 156.230,218.800 158.391,218.408 159.603 C 218.016 160.815,217.339 162.615,216.904 163.603 C 215.687 166.368,215.391 167.146,214.006 171.216 C 213.298 173.297,212.557 175.171,212.359 175.380 C 212.162 175.589,212.000 176.086,212.000 176.485 C 212.000 176.884,211.833 177.523,211.628 177.905 C 211.424 178.287,210.816 179.950,210.276 181.600 C 209.418 184.226,208.602 186.600,207.594 189.400 C 207.436 189.840,206.545 192.630,205.615 195.600 C 204.685 198.570,203.782 201.450,203.608 202.000 C 203.435 202.550,203.099 203.720,202.862 204.600 C 202.625 205.480,201.991 207.640,201.453 209.400 C 200.209 213.470,199.465 216.303,198.195 221.800 C 197.636 224.220,196.958 227.010,196.689 228.000 C 194.583 235.749,196.736 245.943,200.488 245.987 C 201.994 246.005,207.151 242.979,210.411 240.165 C 218.778 232.942,221.037 230.536,221.637 228.209 C 221.890 227.225,224.907 218.293,226.774 213.000 C 227.007 212.340,229.258 205.590,231.776 198.000 C 234.295 190.410,237.829 179.880,239.631 174.600 C 242.718 165.554,245.271 157.704,246.007 155.000 C 246.187 154.340,247.083 151.280,247.998 148.200 C 248.914 145.120,249.928 141.610,250.251 140.400 C 250.574 139.190,251.398 136.130,252.082 133.600 C 253.395 128.743,253.670 127.583,255.399 119.600 C 255.995 116.850,256.645 113.880,256.843 113.000 C 257.041 112.120,257.646 109.060,258.186 106.200 C 258.726 103.340,259.454 99.560,259.804 97.800 C 260.667 93.460,260.944 91.541,262.575 78.600 C 262.908 75.960,263.295 73.395,263.437 72.900 C 263.700 71.977,263.442 71.874,261.883 72.279 M363.905 191.883 C 364.402 191.979,365.122 191.975,365.505 191.875 C 365.887 191.775,365.480 191.696,364.600 191.701 C 363.720 191.705,363.407 191.787,363.905 191.883 M287.404 234.520 C 286.337 235.792,276.553 246.644,274.350 249.000 C 273.322 250.100,271.539 252.080,270.388 253.400 C 269.237 254.720,267.627 256.539,266.810 257.443 C 265.993 258.347,265.052 259.476,264.719 259.952 C 264.385 260.428,263.502 261.488,262.756 262.309 C 262.010 263.129,260.589 264.790,259.600 266.000 C 258.610 267.210,257.467 268.560,257.060 269.000 C 256.652 269.440,255.217 271.150,253.869 272.800 C 250.913 276.420,243.122 285.720,242.811 286.000 C 242.689 286.110,241.781 287.189,240.795 288.397 C 238.968 290.633,238.793 290.841,236.093 294.000 C 235.246 294.990,234.204 296.272,233.777 296.850 C 232.947 297.971,214.274 320.303,210.222 325.020 C 207.187 328.554,205.527 330.516,203.664 332.773 C 202.859 333.748,201.480 335.383,200.600 336.408 C 199.720 337.432,198.190 339.229,197.200 340.402 C 196.210 341.575,194.367 343.690,193.104 345.103 C 191.841 346.516,190.131 348.497,189.304 349.506 C 188.477 350.514,186.971 352.253,185.959 353.370 C 184.946 354.486,183.153 356.480,181.975 357.800 C 179.708 360.339,176.401 363.888,174.900 365.391 C 173.389 366.904,173.833 367.898,175.900 367.630 C 176.175 367.594,176.400 367.753,176.400 367.982 C 176.400 368.212,176.921 368.400,177.557 368.400 C 178.194 368.400,178.810 368.648,178.926 368.952 C 179.326 369.994,182.630 368.858,184.521 367.028 C 185.446 366.133,188.084 363.780,190.381 361.800 C 192.679 359.820,196.458 356.488,198.779 354.397 C 201.101 352.305,205.430 348.440,208.400 345.808 C 211.370 343.176,213.890 340.927,214.000 340.811 C 214.110 340.695,216.179 338.800,218.598 336.600 C 221.017 334.400,223.177 332.404,223.398 332.165 C 223.619 331.926,226.140 329.594,229.000 326.982 C 250.047 307.760,281.060 276.666,290.671 265.151 C 296.524 258.137,299.377 252.419,300.025 246.400 C 300.178 244.970,300.437 243.395,300.599 242.900 C 300.825 242.208,300.739 242.000,300.223 242.000 C 299.793 242.000,299.661 241.821,299.853 241.500 C 300.057 241.160,299.937 241.176,299.477 241.549 C 299.105 241.851,298.800 242.414,298.800 242.800 C 298.800 243.586,297.864 244.531,297.473 244.140 C 297.333 244.000,296.973 244.090,296.673 244.340 C 296.372 244.589,296.001 244.667,295.847 244.514 C 295.694 244.361,295.464 244.632,295.337 245.117 C 295.107 245.997,293.600 246.403,293.600 245.586 C 293.600 245.300,293.360 245.300,292.826 245.586 C 291.745 246.165,291.200 246.102,291.200 245.400 C 291.200 245.067,290.844 244.800,290.400 244.800 C 289.867 244.800,289.600 244.533,289.600 244.000 C 289.600 243.560,289.420 243.200,289.200 243.200 C 288.980 243.200,288.800 242.949,288.800 242.643 C 288.800 242.336,288.530 241.982,288.200 241.855 C 287.745 241.681,287.600 240.942,287.600 238.800 C 287.600 236.658,287.745 235.919,288.200 235.745 C 288.837 235.500,289.024 234.186,288.471 233.844 C 288.291 233.732,287.810 234.037,287.404 234.520 M189.800 371.200 C 189.664 371.420,189.923 371.600,190.376 371.600 C 190.829 371.600,191.200 371.420,191.200 371.200 C 191.200 370.980,190.941 370.800,190.624 370.800 C 190.307 370.800,189.936 370.980,189.800 371.200 M210.400 371.200 C 210.400 371.420,211.041 371.600,211.824 371.600 C 212.671 371.600,213.147 371.438,213.000 371.200 C 212.864 370.980,212.223 370.800,211.576 370.800 C 210.929 370.800,210.400 370.980,210.400 371.200 " stroke="none" fill="#240868" fill-rule="evenodd"></path></g></svg>